<?xml version="1.0" encoding="utf-8" standalone="no"?>
<!DOCTYPE svg PUBLIC "-//W3C//DTD SVG 1.1//EN"
  "http://www.w3.org/Graphics/SVG/1.1/DTD/svg11.dtd">
<svg xmlns:xlink="http://www.w3.org/1999/xlink" width="3603.2pt" height="953.11625pt" viewBox="0 0 3603.2 953.11625" xmlns="http://www.w3.org/2000/svg" version="1.1">
 <metadata>
  <rdf:RDF xmlns:dc="http://purl.org/dc/elements/1.1/" xmlns:cc="http://creativecommons.org/ns#" xmlns:rdf="http://www.w3.org/1999/02/22-rdf-syntax-ns#">
   <cc:Work>
    <dc:type rdf:resource="http://purl.org/dc/dcmitype/StillImage"/>
    <dc:date>2026-06-23T14:29:14.976923</dc:date>
    <dc:format>image/svg+xml</dc:format>
    <dc:creator>
     <cc:Agent>
      <dc:title>Matplotlib v3.10.7, https://matplotlib.org/</dc:title>
     </cc:Agent>
    </dc:creator>
   </cc:Work>
  </rdf:RDF>
 </metadata>
 <defs>
  <style type="text/css">*{stroke-linejoin: round; stroke-linecap: butt}</style>
 </defs>
 <g id="figure_1">
  <g id="patch_1">
   <path d="M 0 953.11625 
L 3603.2 953.11625 
L 3603.2 0 
L 0 0 
z
" style="fill: #ffffff"/>
  </g>
  <g id="axes_1">
   <g id="line2d_1">
    <path d="M 1218.42 602.583484 
L 994.12 793.32391 
" clip-path="url(#pdacaf75200)" style="fill: none; stroke: #4a4a4a; stroke-width: 1.4; stroke-linecap: square"/>
   </g>
   <g id="line2d_2">
    <path d="M 1218.42 602.583484 
L 1442.72 793.32391 
" clip-path="url(#pdacaf75200)" style="fill: none; stroke: #4a4a4a; stroke-width: 1.4; stroke-linecap: square"/>
   </g>
   <g id="line2d_3">
    <path d="M 881.97 411.843059 
L 545.52 602.583484 
" clip-path="url(#pdacaf75200)" style="fill: none; stroke: #4a4a4a; stroke-width: 1.4; stroke-linecap: square"/>
   </g>
   <g id="line2d_4">
    <path d="M 881.97 411.843059 
L 1218.42 602.583484 
" clip-path="url(#pdacaf75200)" style="fill: none; stroke: #4a4a4a; stroke-width: 1.4; stroke-linecap: square"/>
   </g>
   <g id="line2d_5">
    <path d="M 2115.62 602.583484 
L 1891.32 793.32391 
" clip-path="url(#pdacaf75200)" style="fill: none; stroke: #4a4a4a; stroke-width: 1.4; stroke-linecap: square"/>
   </g>
   <g id="line2d_6">
    <path d="M 2115.62 602.583484 
L 2339.92 793.32391 
" clip-path="url(#pdacaf75200)" style="fill: none; stroke: #4a4a4a; stroke-width: 1.4; stroke-linecap: square"/>
   </g>
   <g id="line2d_7">
    <path d="M 3012.82 602.583484 
L 2788.52 793.32391 
" clip-path="url(#pdacaf75200)" style="fill: none; stroke: #4a4a4a; stroke-width: 1.4; stroke-linecap: square"/>
   </g>
   <g id="line2d_8">
    <path d="M 3012.82 602.583484 
L 3237.12 793.32391 
" clip-path="url(#pdacaf75200)" style="fill: none; stroke: #4a4a4a; stroke-width: 1.4; stroke-linecap: square"/>
   </g>
   <g id="line2d_9">
    <path d="M 2564.22 411.843059 
L 2115.62 602.583484 
" clip-path="url(#pdacaf75200)" style="fill: none; stroke: #4a4a4a; stroke-width: 1.4; stroke-linecap: square"/>
   </g>
   <g id="line2d_10">
    <path d="M 2564.22 411.843059 
L 3012.82 602.583484 
" clip-path="url(#pdacaf75200)" style="fill: none; stroke: #4a4a4a; stroke-width: 1.4; stroke-linecap: square"/>
   </g>
   <g id="line2d_11">
    <path d="M 1723.095 221.102633 
L 881.97 411.843059 
" clip-path="url(#pdacaf75200)" style="fill: none; stroke: #4a4a4a; stroke-width: 1.4; stroke-linecap: square"/>
   </g>
   <g id="line2d_12">
    <path d="M 1723.095 221.102633 
L 2564.22 411.843059 
" clip-path="url(#pdacaf75200)" style="fill: none; stroke: #4a4a4a; stroke-width: 1.4; stroke-linecap: square"/>
   </g>
   <g id="text_1">
    <g id="patch_2">
     <path d="M 1079.5105 714.125814 
L 1115.0855 714.125814 
L 1115.0855 697.040814 
L 1079.5105 697.040814 
z
" style="fill: #ffffff"/>
    </g>
    <!-- True -->
    <g style="fill: #333333" transform="translate(1080.3105 709.998314) scale(0.16 -0.16)">
     <defs>
      <path id="DejaVuSans-54" d="M -19 4666 
L 3928 4666 
L 3928 4134 
L 2272 4134 
L 2272 0 
L 1638 0 
L 1638 4134 
L -19 4134 
L -19 4666 
z
" transform="scale(0.015625)"/>
      <path id="DejaVuSans-72" d="M 2631 2963 
Q 2534 3019 2420 3045 
Q 2306 3072 2169 3072 
Q 1681 3072 1420 2755 
Q 1159 2438 1159 1844 
L 1159 0 
L 581 0 
L 581 3500 
L 1159 3500 
L 1159 2956 
Q 1341 3275 1631 3429 
Q 1922 3584 2338 3584 
Q 2397 3584 2469 3576 
Q 2541 3569 2628 3553 
L 2631 2963 
z
" transform="scale(0.015625)"/>
      <path id="DejaVuSans-75" d="M 544 1381 
L 544 3500 
L 1119 3500 
L 1119 1403 
Q 1119 906 1312 657 
Q 1506 409 1894 409 
Q 2359 409 2629 706 
Q 2900 1003 2900 1516 
L 2900 3500 
L 3475 3500 
L 3475 0 
L 2900 0 
L 2900 538 
Q 2691 219 2414 64 
Q 2138 -91 1772 -91 
Q 1169 -91 856 284 
Q 544 659 544 1381 
z
M 1991 3584 
L 1991 3584 
z
" transform="scale(0.015625)"/>
      <path id="DejaVuSans-65" d="M 3597 1894 
L 3597 1613 
L 953 1613 
Q 991 1019 1311 708 
Q 1631 397 2203 397 
Q 2534 397 2845 478 
Q 3156 559 3463 722 
L 3463 178 
Q 3153 47 2828 -22 
Q 2503 -91 2169 -91 
Q 1331 -91 842 396 
Q 353 884 353 1716 
Q 353 2575 817 3079 
Q 1281 3584 2069 3584 
Q 2775 3584 3186 3129 
Q 3597 2675 3597 1894 
z
M 3022 2063 
Q 3016 2534 2758 2815 
Q 2500 3097 2075 3097 
Q 1594 3097 1305 2825 
Q 1016 2553 972 2059 
L 3022 2063 
z
" transform="scale(0.015625)"/>
     </defs>
     <use xlink:href="#DejaVuSans-54"/>
     <use xlink:href="#DejaVuSans-72" transform="translate(46.333984 0)"/>
     <use xlink:href="#DejaVuSans-75" transform="translate(87.447266 0)"/>
     <use xlink:href="#DejaVuSans-65" transform="translate(150.826172 0)"/>
    </g>
   </g>
   <g id="text_2">
    <g id="patch_3">
     <path d="M 1318.65575 714.125814 
L 1360.42825 714.125814 
L 1360.42825 697.040814 
L 1318.65575 697.040814 
z
" style="fill: #ffffff"/>
    </g>
    <!-- False -->
    <g style="fill: #333333" transform="translate(1319.45575 709.998314) scale(0.16 -0.16)">
     <defs>
      <path id="DejaVuSans-46" d="M 628 4666 
L 3309 4666 
L 3309 4134 
L 1259 4134 
L 1259 2759 
L 3109 2759 
L 3109 2228 
L 1259 2228 
L 1259 0 
L 628 0 
L 628 4666 
z
" transform="scale(0.015625)"/>
      <path id="DejaVuSans-61" d="M 2194 1759 
Q 1497 1759 1228 1600 
Q 959 1441 959 1056 
Q 959 750 1161 570 
Q 1363 391 1709 391 
Q 2188 391 2477 730 
Q 2766 1069 2766 1631 
L 2766 1759 
L 2194 1759 
z
M 3341 1997 
L 3341 0 
L 2766 0 
L 2766 531 
Q 2569 213 2275 61 
Q 1981 -91 1556 -91 
Q 1019 -91 701 211 
Q 384 513 384 1019 
Q 384 1609 779 1909 
Q 1175 2209 1959 2209 
L 2766 2209 
L 2766 2266 
Q 2766 2663 2505 2880 
Q 2244 3097 1772 3097 
Q 1472 3097 1187 3025 
Q 903 2953 641 2809 
L 641 3341 
Q 956 3463 1253 3523 
Q 1550 3584 1831 3584 
Q 2591 3584 2966 3190 
Q 3341 2797 3341 1997 
z
" transform="scale(0.015625)"/>
      <path id="DejaVuSans-6c" d="M 603 4863 
L 1178 4863 
L 1178 0 
L 603 0 
L 603 4863 
z
" transform="scale(0.015625)"/>
      <path id="DejaVuSans-73" d="M 2834 3397 
L 2834 2853 
Q 2591 2978 2328 3040 
Q 2066 3103 1784 3103 
Q 1356 3103 1142 2972 
Q 928 2841 928 2578 
Q 928 2378 1081 2264 
Q 1234 2150 1697 2047 
L 1894 2003 
Q 2506 1872 2764 1633 
Q 3022 1394 3022 966 
Q 3022 478 2636 193 
Q 2250 -91 1575 -91 
Q 1294 -91 989 -36 
Q 684 19 347 128 
L 347 722 
Q 666 556 975 473 
Q 1284 391 1588 391 
Q 1994 391 2212 530 
Q 2431 669 2431 922 
Q 2431 1156 2273 1281 
Q 2116 1406 1581 1522 
L 1381 1569 
Q 847 1681 609 1914 
Q 372 2147 372 2553 
Q 372 3047 722 3315 
Q 1072 3584 1716 3584 
Q 2034 3584 2315 3537 
Q 2597 3491 2834 3397 
z
" transform="scale(0.015625)"/>
     </defs>
     <use xlink:href="#DejaVuSans-46"/>
     <use xlink:href="#DejaVuSans-61" transform="translate(48.394531 0)"/>
     <use xlink:href="#DejaVuSans-6c" transform="translate(109.673828 0)"/>
     <use xlink:href="#DejaVuSans-73" transform="translate(137.457031 0)"/>
     <use xlink:href="#DejaVuSans-65" transform="translate(189.556641 0)"/>
    </g>
   </g>
   <g id="text_3">
    <g id="patch_4">
     <path d="M 682.4995 523.385388 
L 718.0745 523.385388 
L 718.0745 506.300388 
L 682.4995 506.300388 
z
" style="fill: #ffffff"/>
    </g>
    <!-- True -->
    <g style="fill: #333333" transform="translate(683.2995 519.257888) scale(0.16 -0.16)">
     <use xlink:href="#DejaVuSans-54"/>
     <use xlink:href="#DejaVuSans-72" transform="translate(46.333984 0)"/>
     <use xlink:href="#DejaVuSans-75" transform="translate(87.447266 0)"/>
     <use xlink:href="#DejaVuSans-65" transform="translate(150.826172 0)"/>
    </g>
   </g>
   <g id="text_4">
    <g id="patch_5">
     <path d="M 1042.76675 523.385388 
L 1084.53925 523.385388 
L 1084.53925 506.300388 
L 1042.76675 506.300388 
z
" style="fill: #ffffff"/>
    </g>
    <!-- False -->
    <g style="fill: #333333" transform="translate(1043.56675 519.257888) scale(0.16 -0.16)">
     <use xlink:href="#DejaVuSans-46"/>
     <use xlink:href="#DejaVuSans-61" transform="translate(48.394531 0)"/>
     <use xlink:href="#DejaVuSans-6c" transform="translate(109.673828 0)"/>
     <use xlink:href="#DejaVuSans-73" transform="translate(137.457031 0)"/>
     <use xlink:href="#DejaVuSans-65" transform="translate(189.556641 0)"/>
    </g>
   </g>
   <g id="text_5">
    <g id="patch_6">
     <path d="M 1976.7105 714.125814 
L 2012.2855 714.125814 
L 2012.2855 697.040814 
L 1976.7105 697.040814 
z
" style="fill: #ffffff"/>
    </g>
    <!-- True -->
    <g style="fill: #333333" transform="translate(1977.5105 709.998314) scale(0.16 -0.16)">
     <use xlink:href="#DejaVuSans-54"/>
     <use xlink:href="#DejaVuSans-72" transform="translate(46.333984 0)"/>
     <use xlink:href="#DejaVuSans-75" transform="translate(87.447266 0)"/>
     <use xlink:href="#DejaVuSans-65" transform="translate(150.826172 0)"/>
    </g>
   </g>
   <g id="text_6">
    <g id="patch_7">
     <path d="M 2215.85575 714.125814 
L 2257.62825 714.125814 
L 2257.62825 697.040814 
L 2215.85575 697.040814 
z
" style="fill: #ffffff"/>
    </g>
    <!-- False -->
    <g style="fill: #333333" transform="translate(2216.65575 709.998314) scale(0.16 -0.16)">
     <use xlink:href="#DejaVuSans-46"/>
     <use xlink:href="#DejaVuSans-61" transform="translate(48.394531 0)"/>
     <use xlink:href="#DejaVuSans-6c" transform="translate(109.673828 0)"/>
     <use xlink:href="#DejaVuSans-73" transform="translate(137.457031 0)"/>
     <use xlink:href="#DejaVuSans-65" transform="translate(189.556641 0)"/>
    </g>
   </g>
   <g id="text_7">
    <g id="patch_8">
     <path d="M 2873.9105 714.125814 
L 2909.4855 714.125814 
L 2909.4855 697.040814 
L 2873.9105 697.040814 
z
" style="fill: #ffffff"/>
    </g>
    <!-- True -->
    <g style="fill: #333333" transform="translate(2874.7105 709.998314) scale(0.16 -0.16)">
     <use xlink:href="#DejaVuSans-54"/>
     <use xlink:href="#DejaVuSans-72" transform="translate(46.333984 0)"/>
     <use xlink:href="#DejaVuSans-75" transform="translate(87.447266 0)"/>
     <use xlink:href="#DejaVuSans-65" transform="translate(150.826172 0)"/>
    </g>
   </g>
   <g id="text_8">
    <g id="patch_9">
     <path d="M 3113.05575 714.125814 
L 3154.82825 714.125814 
L 3154.82825 697.040814 
L 3113.05575 697.040814 
z
" style="fill: #ffffff"/>
    </g>
    <!-- False -->
    <g style="fill: #333333" transform="translate(3113.85575 709.998314) scale(0.16 -0.16)">
     <use xlink:href="#DejaVuSans-46"/>
     <use xlink:href="#DejaVuSans-61" transform="translate(48.394531 0)"/>
     <use xlink:href="#DejaVuSans-6c" transform="translate(109.673828 0)"/>
     <use xlink:href="#DejaVuSans-73" transform="translate(137.457031 0)"/>
     <use xlink:href="#DejaVuSans-65" transform="translate(189.556641 0)"/>
    </g>
   </g>
   <g id="text_9">
    <g id="patch_10">
     <path d="M 2304.1885 523.385388 
L 2339.7635 523.385388 
L 2339.7635 506.300388 
L 2304.1885 506.300388 
z
" style="fill: #ffffff"/>
    </g>
    <!-- True -->
    <g style="fill: #333333" transform="translate(2304.9885 519.257888) scale(0.16 -0.16)">
     <use xlink:href="#DejaVuSans-54"/>
     <use xlink:href="#DejaVuSans-72" transform="translate(46.333984 0)"/>
     <use xlink:href="#DejaVuSans-75" transform="translate(87.447266 0)"/>
     <use xlink:href="#DejaVuSans-65" transform="translate(150.826172 0)"/>
    </g>
   </g>
   <g id="text_10">
    <g id="patch_11">
     <path d="M 2785.57775 523.385388 
L 2827.35025 523.385388 
L 2827.35025 506.300388 
L 2785.57775 506.300388 
z
" style="fill: #ffffff"/>
    </g>
    <!-- False -->
    <g style="fill: #333333" transform="translate(2786.37775 519.257888) scale(0.16 -0.16)">
     <use xlink:href="#DejaVuSans-46"/>
     <use xlink:href="#DejaVuSans-61" transform="translate(48.394531 0)"/>
     <use xlink:href="#DejaVuSans-6c" transform="translate(109.673828 0)"/>
     <use xlink:href="#DejaVuSans-73" transform="translate(137.457031 0)"/>
     <use xlink:href="#DejaVuSans-65" transform="translate(189.556641 0)"/>
    </g>
   </g>
   <g id="text_11">
    <g id="patch_12">
     <path d="M 1251.1 332.644963 
L 1286.675 332.644963 
L 1286.675 315.559963 
L 1251.1 315.559963 
z
" style="fill: #ffffff"/>
    </g>
    <!-- True -->
    <g style="fill: #333333" transform="translate(1251.9 328.517463) scale(0.16 -0.16)">
     <use xlink:href="#DejaVuSans-54"/>
     <use xlink:href="#DejaVuSans-72" transform="translate(46.333984 0)"/>
     <use xlink:href="#DejaVuSans-75" transform="translate(87.447266 0)"/>
     <use xlink:href="#DejaVuSans-65" transform="translate(150.826172 0)"/>
    </g>
   </g>
   <g id="text_12">
    <g id="patch_13">
     <path d="M 2156.41625 332.644963 
L 2198.18875 332.644963 
L 2198.18875 315.559963 
L 2156.41625 315.559963 
z
" style="fill: #ffffff"/>
    </g>
    <!-- False -->
    <g style="fill: #333333" transform="translate(2157.21625 328.517463) scale(0.16 -0.16)">
     <use xlink:href="#DejaVuSans-46"/>
     <use xlink:href="#DejaVuSans-61" transform="translate(48.394531 0)"/>
     <use xlink:href="#DejaVuSans-6c" transform="translate(109.673828 0)"/>
     <use xlink:href="#DejaVuSans-73" transform="translate(137.457031 0)"/>
     <use xlink:href="#DejaVuSans-65" transform="translate(189.556641 0)"/>
    </g>
   </g>
   <g id="text_13">
    <g id="patch_14">
     <path d="M 390.704531 631.4086 
L 700.335469 631.4086 
Q 702.855469 631.4086 702.855469 628.8886 
L 702.855469 576.278368 
Q 702.855469 573.758368 700.335469 573.758368 
L 390.704531 573.758368 
Q 388.184531 573.758368 388.184531 576.278368 
L 388.184531 628.8886 
Q 388.184531 631.4086 390.704531 631.4086 
z
" style="fill: #b9d8ee; stroke: #333333; stroke-width: 1.25; stroke-linejoin: miter"/>
    </g>
    <!-- LOW/MID ANOMALY n=16 (0.2%) -->
    <g transform="translate(398.084531 597.335556) scale(0.18 -0.18)">
     <defs>
      <path id="DejaVuSans-4c" d="M 628 4666 
L 1259 4666 
L 1259 531 
L 3531 531 
L 3531 0 
L 628 0 
L 628 4666 
z
" transform="scale(0.015625)"/>
      <path id="DejaVuSans-4f" d="M 2522 4238 
Q 1834 4238 1429 3725 
Q 1025 3213 1025 2328 
Q 1025 1447 1429 934 
Q 1834 422 2522 422 
Q 3209 422 3611 934 
Q 4013 1447 4013 2328 
Q 4013 3213 3611 3725 
Q 3209 4238 2522 4238 
z
M 2522 4750 
Q 3503 4750 4090 4092 
Q 4678 3434 4678 2328 
Q 4678 1225 4090 567 
Q 3503 -91 2522 -91 
Q 1538 -91 948 565 
Q 359 1222 359 2328 
Q 359 3434 948 4092 
Q 1538 4750 2522 4750 
z
" transform="scale(0.015625)"/>
      <path id="DejaVuSans-57" d="M 213 4666 
L 850 4666 
L 1831 722 
L 2809 4666 
L 3519 4666 
L 4500 722 
L 5478 4666 
L 6119 4666 
L 4947 0 
L 4153 0 
L 3169 4050 
L 2175 0 
L 1381 0 
L 213 4666 
z
" transform="scale(0.015625)"/>
      <path id="DejaVuSans-2f" d="M 1625 4666 
L 2156 4666 
L 531 -594 
L 0 -594 
L 1625 4666 
z
" transform="scale(0.015625)"/>
      <path id="DejaVuSans-4d" d="M 628 4666 
L 1569 4666 
L 2759 1491 
L 3956 4666 
L 4897 4666 
L 4897 0 
L 4281 0 
L 4281 4097 
L 3078 897 
L 2444 897 
L 1241 4097 
L 1241 0 
L 628 0 
L 628 4666 
z
" transform="scale(0.015625)"/>
      <path id="DejaVuSans-49" d="M 628 4666 
L 1259 4666 
L 1259 0 
L 628 0 
L 628 4666 
z
" transform="scale(0.015625)"/>
      <path id="DejaVuSans-44" d="M 1259 4147 
L 1259 519 
L 2022 519 
Q 2988 519 3436 956 
Q 3884 1394 3884 2338 
Q 3884 3275 3436 3711 
Q 2988 4147 2022 4147 
L 1259 4147 
z
M 628 4666 
L 1925 4666 
Q 3281 4666 3915 4102 
Q 4550 3538 4550 2338 
Q 4550 1131 3912 565 
Q 3275 0 1925 0 
L 628 0 
L 628 4666 
z
" transform="scale(0.015625)"/>
      <path id="DejaVuSans-20" transform="scale(0.015625)"/>
      <path id="DejaVuSans-41" d="M 2188 4044 
L 1331 1722 
L 3047 1722 
L 2188 4044 
z
M 1831 4666 
L 2547 4666 
L 4325 0 
L 3669 0 
L 3244 1197 
L 1141 1197 
L 716 0 
L 50 0 
L 1831 4666 
z
" transform="scale(0.015625)"/>
      <path id="DejaVuSans-4e" d="M 628 4666 
L 1478 4666 
L 3547 763 
L 3547 4666 
L 4159 4666 
L 4159 0 
L 3309 0 
L 1241 3903 
L 1241 0 
L 628 0 
L 628 4666 
z
" transform="scale(0.015625)"/>
      <path id="DejaVuSans-59" d="M -13 4666 
L 666 4666 
L 1959 2747 
L 3244 4666 
L 3922 4666 
L 2272 2222 
L 2272 0 
L 1638 0 
L 1638 2222 
L -13 4666 
z
" transform="scale(0.015625)"/>
      <path id="DejaVuSans-6e" d="M 3513 2113 
L 3513 0 
L 2938 0 
L 2938 2094 
Q 2938 2591 2744 2837 
Q 2550 3084 2163 3084 
Q 1697 3084 1428 2787 
Q 1159 2491 1159 1978 
L 1159 0 
L 581 0 
L 581 3500 
L 1159 3500 
L 1159 2956 
Q 1366 3272 1645 3428 
Q 1925 3584 2291 3584 
Q 2894 3584 3203 3211 
Q 3513 2838 3513 2113 
z
" transform="scale(0.015625)"/>
      <path id="DejaVuSans-3d" d="M 678 2906 
L 4684 2906 
L 4684 2381 
L 678 2381 
L 678 2906 
z
M 678 1631 
L 4684 1631 
L 4684 1100 
L 678 1100 
L 678 1631 
z
" transform="scale(0.015625)"/>
      <path id="DejaVuSans-31" d="M 794 531 
L 1825 531 
L 1825 4091 
L 703 3866 
L 703 4441 
L 1819 4666 
L 2450 4666 
L 2450 531 
L 3481 531 
L 3481 0 
L 794 0 
L 794 531 
z
" transform="scale(0.015625)"/>
      <path id="DejaVuSans-36" d="M 2113 2584 
Q 1688 2584 1439 2293 
Q 1191 2003 1191 1497 
Q 1191 994 1439 701 
Q 1688 409 2113 409 
Q 2538 409 2786 701 
Q 3034 994 3034 1497 
Q 3034 2003 2786 2293 
Q 2538 2584 2113 2584 
z
M 3366 4563 
L 3366 3988 
Q 3128 4100 2886 4159 
Q 2644 4219 2406 4219 
Q 1781 4219 1451 3797 
Q 1122 3375 1075 2522 
Q 1259 2794 1537 2939 
Q 1816 3084 2150 3084 
Q 2853 3084 3261 2657 
Q 3669 2231 3669 1497 
Q 3669 778 3244 343 
Q 2819 -91 2113 -91 
Q 1303 -91 875 529 
Q 447 1150 447 2328 
Q 447 3434 972 4092 
Q 1497 4750 2381 4750 
Q 2619 4750 2861 4703 
Q 3103 4656 3366 4563 
z
" transform="scale(0.015625)"/>
      <path id="DejaVuSans-28" d="M 1984 4856 
Q 1566 4138 1362 3434 
Q 1159 2731 1159 2009 
Q 1159 1288 1364 580 
Q 1569 -128 1984 -844 
L 1484 -844 
Q 1016 -109 783 600 
Q 550 1309 550 2009 
Q 550 2706 781 3412 
Q 1013 4119 1484 4856 
L 1984 4856 
z
" transform="scale(0.015625)"/>
      <path id="DejaVuSans-30" d="M 2034 4250 
Q 1547 4250 1301 3770 
Q 1056 3291 1056 2328 
Q 1056 1369 1301 889 
Q 1547 409 2034 409 
Q 2525 409 2770 889 
Q 3016 1369 3016 2328 
Q 3016 3291 2770 3770 
Q 2525 4250 2034 4250 
z
M 2034 4750 
Q 2819 4750 3233 4129 
Q 3647 3509 3647 2328 
Q 3647 1150 3233 529 
Q 2819 -91 2034 -91 
Q 1250 -91 836 529 
Q 422 1150 422 2328 
Q 422 3509 836 4129 
Q 1250 4750 2034 4750 
z
" transform="scale(0.015625)"/>
      <path id="DejaVuSans-2e" d="M 684 794 
L 1344 794 
L 1344 0 
L 684 0 
L 684 794 
z
" transform="scale(0.015625)"/>
      <path id="DejaVuSans-32" d="M 1228 531 
L 3431 531 
L 3431 0 
L 469 0 
L 469 531 
Q 828 903 1448 1529 
Q 2069 2156 2228 2338 
Q 2531 2678 2651 2914 
Q 2772 3150 2772 3378 
Q 2772 3750 2511 3984 
Q 2250 4219 1831 4219 
Q 1534 4219 1204 4116 
Q 875 4013 500 3803 
L 500 4441 
Q 881 4594 1212 4672 
Q 1544 4750 1819 4750 
Q 2544 4750 2975 4387 
Q 3406 4025 3406 3419 
Q 3406 3131 3298 2873 
Q 3191 2616 2906 2266 
Q 2828 2175 2409 1742 
Q 1991 1309 1228 531 
z
" transform="scale(0.015625)"/>
      <path id="DejaVuSans-25" d="M 4653 2053 
Q 4381 2053 4226 1822 
Q 4072 1591 4072 1178 
Q 4072 772 4226 539 
Q 4381 306 4653 306 
Q 4919 306 5073 539 
Q 5228 772 5228 1178 
Q 5228 1588 5073 1820 
Q 4919 2053 4653 2053 
z
M 4653 2450 
Q 5147 2450 5437 2106 
Q 5728 1763 5728 1178 
Q 5728 594 5436 251 
Q 5144 -91 4653 -91 
Q 4153 -91 3862 251 
Q 3572 594 3572 1178 
Q 3572 1766 3864 2108 
Q 4156 2450 4653 2450 
z
M 1428 4353 
Q 1159 4353 1004 4120 
Q 850 3888 850 3481 
Q 850 3069 1003 2837 
Q 1156 2606 1428 2606 
Q 1700 2606 1854 2837 
Q 2009 3069 2009 3481 
Q 2009 3884 1853 4118 
Q 1697 4353 1428 4353 
z
M 4250 4750 
L 4750 4750 
L 1831 -91 
L 1331 -91 
L 4250 4750 
z
M 1428 4750 
Q 1922 4750 2215 4408 
Q 2509 4066 2509 3481 
Q 2509 2891 2217 2550 
Q 1925 2209 1428 2209 
Q 931 2209 642 2551 
Q 353 2894 353 3481 
Q 353 4063 643 4406 
Q 934 4750 1428 4750 
z
" transform="scale(0.015625)"/>
      <path id="DejaVuSans-29" d="M 513 4856 
L 1013 4856 
Q 1481 4119 1714 3412 
Q 1947 2706 1947 2009 
Q 1947 1309 1714 600 
Q 1481 -109 1013 -844 
L 513 -844 
Q 928 -128 1133 580 
Q 1338 1288 1338 2009 
Q 1338 2731 1133 3434 
Q 928 4138 513 4856 
z
" transform="scale(0.015625)"/>
     </defs>
     <use xlink:href="#DejaVuSans-4c"/>
     <use xlink:href="#DejaVuSans-4f" transform="translate(52.087891 0)"/>
     <use xlink:href="#DejaVuSans-57" transform="translate(130.798828 0)"/>
     <use xlink:href="#DejaVuSans-2f" transform="translate(229.675781 0)"/>
     <use xlink:href="#DejaVuSans-4d" transform="translate(263.367188 0)"/>
     <use xlink:href="#DejaVuSans-49" transform="translate(349.646484 0)"/>
     <use xlink:href="#DejaVuSans-44" transform="translate(379.138672 0)"/>
     <use xlink:href="#DejaVuSans-20" transform="translate(456.140625 0)"/>
     <use xlink:href="#DejaVuSans-41" transform="translate(487.927734 0)"/>
     <use xlink:href="#DejaVuSans-4e" transform="translate(556.335938 0)"/>
     <use xlink:href="#DejaVuSans-4f" transform="translate(631.140625 0)"/>
     <use xlink:href="#DejaVuSans-4d" transform="translate(709.851562 0)"/>
     <use xlink:href="#DejaVuSans-41" transform="translate(796.130859 0)"/>
     <use xlink:href="#DejaVuSans-4c" transform="translate(864.539062 0)"/>
     <use xlink:href="#DejaVuSans-59" transform="translate(907.001953 0)"/>
     <use xlink:href="#DejaVuSans-20" transform="translate(968.085938 0)"/>
     <use xlink:href="#DejaVuSans-6e" transform="translate(999.873047 0)"/>
     <use xlink:href="#DejaVuSans-3d" transform="translate(1063.251953 0)"/>
     <use xlink:href="#DejaVuSans-31" transform="translate(1147.041016 0)"/>
     <use xlink:href="#DejaVuSans-36" transform="translate(1210.664062 0)"/>
     <use xlink:href="#DejaVuSans-20" transform="translate(1274.287109 0)"/>
     <use xlink:href="#DejaVuSans-28" transform="translate(1306.074219 0)"/>
     <use xlink:href="#DejaVuSans-30" transform="translate(1345.087891 0)"/>
     <use xlink:href="#DejaVuSans-2e" transform="translate(1408.710938 0)"/>
     <use xlink:href="#DejaVuSans-32" transform="translate(1440.498047 0)"/>
     <use xlink:href="#DejaVuSans-25" transform="translate(1504.121094 0)"/>
     <use xlink:href="#DejaVuSans-29" transform="translate(1599.140625 0)"/>
    </g>
    <!-- effect=1.66 SD gap=-1.51e+03 -->
    <g transform="translate(401.383594 617.765162) scale(0.18 -0.18)">
     <defs>
      <path id="DejaVuSans-66" d="M 2375 4863 
L 2375 4384 
L 1825 4384 
Q 1516 4384 1395 4259 
Q 1275 4134 1275 3809 
L 1275 3500 
L 2222 3500 
L 2222 3053 
L 1275 3053 
L 1275 0 
L 697 0 
L 697 3053 
L 147 3053 
L 147 3500 
L 697 3500 
L 697 3744 
Q 697 4328 969 4595 
Q 1241 4863 1831 4863 
L 2375 4863 
z
" transform="scale(0.015625)"/>
      <path id="DejaVuSans-63" d="M 3122 3366 
L 3122 2828 
Q 2878 2963 2633 3030 
Q 2388 3097 2138 3097 
Q 1578 3097 1268 2742 
Q 959 2388 959 1747 
Q 959 1106 1268 751 
Q 1578 397 2138 397 
Q 2388 397 2633 464 
Q 2878 531 3122 666 
L 3122 134 
Q 2881 22 2623 -34 
Q 2366 -91 2075 -91 
Q 1284 -91 818 406 
Q 353 903 353 1747 
Q 353 2603 823 3093 
Q 1294 3584 2113 3584 
Q 2378 3584 2631 3529 
Q 2884 3475 3122 3366 
z
" transform="scale(0.015625)"/>
      <path id="DejaVuSans-74" d="M 1172 4494 
L 1172 3500 
L 2356 3500 
L 2356 3053 
L 1172 3053 
L 1172 1153 
Q 1172 725 1289 603 
Q 1406 481 1766 481 
L 2356 481 
L 2356 0 
L 1766 0 
Q 1100 0 847 248 
Q 594 497 594 1153 
L 594 3053 
L 172 3053 
L 172 3500 
L 594 3500 
L 594 4494 
L 1172 4494 
z
" transform="scale(0.015625)"/>
      <path id="DejaVuSans-53" d="M 3425 4513 
L 3425 3897 
Q 3066 4069 2747 4153 
Q 2428 4238 2131 4238 
Q 1616 4238 1336 4038 
Q 1056 3838 1056 3469 
Q 1056 3159 1242 3001 
Q 1428 2844 1947 2747 
L 2328 2669 
Q 3034 2534 3370 2195 
Q 3706 1856 3706 1288 
Q 3706 609 3251 259 
Q 2797 -91 1919 -91 
Q 1588 -91 1214 -16 
Q 841 59 441 206 
L 441 856 
Q 825 641 1194 531 
Q 1563 422 1919 422 
Q 2459 422 2753 634 
Q 3047 847 3047 1241 
Q 3047 1584 2836 1778 
Q 2625 1972 2144 2069 
L 1759 2144 
Q 1053 2284 737 2584 
Q 422 2884 422 3419 
Q 422 4038 858 4394 
Q 1294 4750 2059 4750 
Q 2388 4750 2728 4690 
Q 3069 4631 3425 4513 
z
" transform="scale(0.015625)"/>
      <path id="DejaVuSans-67" d="M 2906 1791 
Q 2906 2416 2648 2759 
Q 2391 3103 1925 3103 
Q 1463 3103 1205 2759 
Q 947 2416 947 1791 
Q 947 1169 1205 825 
Q 1463 481 1925 481 
Q 2391 481 2648 825 
Q 2906 1169 2906 1791 
z
M 3481 434 
Q 3481 -459 3084 -895 
Q 2688 -1331 1869 -1331 
Q 1566 -1331 1297 -1286 
Q 1028 -1241 775 -1147 
L 775 -588 
Q 1028 -725 1275 -790 
Q 1522 -856 1778 -856 
Q 2344 -856 2625 -561 
Q 2906 -266 2906 331 
L 2906 616 
Q 2728 306 2450 153 
Q 2172 0 1784 0 
Q 1141 0 747 490 
Q 353 981 353 1791 
Q 353 2603 747 3093 
Q 1141 3584 1784 3584 
Q 2172 3584 2450 3431 
Q 2728 3278 2906 2969 
L 2906 3500 
L 3481 3500 
L 3481 434 
z
" transform="scale(0.015625)"/>
      <path id="DejaVuSans-70" d="M 1159 525 
L 1159 -1331 
L 581 -1331 
L 581 3500 
L 1159 3500 
L 1159 2969 
Q 1341 3281 1617 3432 
Q 1894 3584 2278 3584 
Q 2916 3584 3314 3078 
Q 3713 2572 3713 1747 
Q 3713 922 3314 415 
Q 2916 -91 2278 -91 
Q 1894 -91 1617 61 
Q 1341 213 1159 525 
z
M 3116 1747 
Q 3116 2381 2855 2742 
Q 2594 3103 2138 3103 
Q 1681 3103 1420 2742 
Q 1159 2381 1159 1747 
Q 1159 1113 1420 752 
Q 1681 391 2138 391 
Q 2594 391 2855 752 
Q 3116 1113 3116 1747 
z
" transform="scale(0.015625)"/>
      <path id="DejaVuSans-2d" d="M 313 2009 
L 1997 2009 
L 1997 1497 
L 313 1497 
L 313 2009 
z
" transform="scale(0.015625)"/>
      <path id="DejaVuSans-35" d="M 691 4666 
L 3169 4666 
L 3169 4134 
L 1269 4134 
L 1269 2991 
Q 1406 3038 1543 3061 
Q 1681 3084 1819 3084 
Q 2600 3084 3056 2656 
Q 3513 2228 3513 1497 
Q 3513 744 3044 326 
Q 2575 -91 1722 -91 
Q 1428 -91 1123 -41 
Q 819 9 494 109 
L 494 744 
Q 775 591 1075 516 
Q 1375 441 1709 441 
Q 2250 441 2565 725 
Q 2881 1009 2881 1497 
Q 2881 1984 2565 2268 
Q 2250 2553 1709 2553 
Q 1456 2553 1204 2497 
Q 953 2441 691 2322 
L 691 4666 
z
" transform="scale(0.015625)"/>
      <path id="DejaVuSans-2b" d="M 2944 4013 
L 2944 2272 
L 4684 2272 
L 4684 1741 
L 2944 1741 
L 2944 0 
L 2419 0 
L 2419 1741 
L 678 1741 
L 678 2272 
L 2419 2272 
L 2419 4013 
L 2944 4013 
z
" transform="scale(0.015625)"/>
      <path id="DejaVuSans-33" d="M 2597 2516 
Q 3050 2419 3304 2112 
Q 3559 1806 3559 1356 
Q 3559 666 3084 287 
Q 2609 -91 1734 -91 
Q 1441 -91 1130 -33 
Q 819 25 488 141 
L 488 750 
Q 750 597 1062 519 
Q 1375 441 1716 441 
Q 2309 441 2620 675 
Q 2931 909 2931 1356 
Q 2931 1769 2642 2001 
Q 2353 2234 1838 2234 
L 1294 2234 
L 1294 2753 
L 1863 2753 
Q 2328 2753 2575 2939 
Q 2822 3125 2822 3475 
Q 2822 3834 2567 4026 
Q 2313 4219 1838 4219 
Q 1578 4219 1281 4162 
Q 984 4106 628 3988 
L 628 4550 
Q 988 4650 1302 4700 
Q 1616 4750 1894 4750 
Q 2613 4750 3031 4423 
Q 3450 4097 3450 3541 
Q 3450 3153 3228 2886 
Q 3006 2619 2597 2516 
z
" transform="scale(0.015625)"/>
     </defs>
     <use xlink:href="#DejaVuSans-65"/>
     <use xlink:href="#DejaVuSans-66" transform="translate(61.523438 0)"/>
     <use xlink:href="#DejaVuSans-66" transform="translate(96.728516 0)"/>
     <use xlink:href="#DejaVuSans-65" transform="translate(131.933594 0)"/>
     <use xlink:href="#DejaVuSans-63" transform="translate(193.457031 0)"/>
     <use xlink:href="#DejaVuSans-74" transform="translate(248.4375 0)"/>
     <use xlink:href="#DejaVuSans-3d" transform="translate(287.646484 0)"/>
     <use xlink:href="#DejaVuSans-31" transform="translate(371.435547 0)"/>
     <use xlink:href="#DejaVuSans-2e" transform="translate(435.058594 0)"/>
     <use xlink:href="#DejaVuSans-36" transform="translate(466.845703 0)"/>
     <use xlink:href="#DejaVuSans-36" transform="translate(530.46875 0)"/>
     <use xlink:href="#DejaVuSans-20" transform="translate(594.091797 0)"/>
     <use xlink:href="#DejaVuSans-53" transform="translate(625.878906 0)"/>
     <use xlink:href="#DejaVuSans-44" transform="translate(689.355469 0)"/>
     <use xlink:href="#DejaVuSans-20" transform="translate(766.357422 0)"/>
     <use xlink:href="#DejaVuSans-67" transform="translate(798.144531 0)"/>
     <use xlink:href="#DejaVuSans-61" transform="translate(861.621094 0)"/>
     <use xlink:href="#DejaVuSans-70" transform="translate(922.900391 0)"/>
     <use xlink:href="#DejaVuSans-3d" transform="translate(986.376953 0)"/>
     <use xlink:href="#DejaVuSans-2d" transform="translate(1070.166016 0)"/>
     <use xlink:href="#DejaVuSans-31" transform="translate(1106.25 0)"/>
     <use xlink:href="#DejaVuSans-2e" transform="translate(1169.873047 0)"/>
     <use xlink:href="#DejaVuSans-35" transform="translate(1201.660156 0)"/>
     <use xlink:href="#DejaVuSans-31" transform="translate(1265.283203 0)"/>
     <use xlink:href="#DejaVuSans-65" transform="translate(1328.90625 0)"/>
     <use xlink:href="#DejaVuSans-2b" transform="translate(1390.429688 0)"/>
     <use xlink:href="#DejaVuSans-30" transform="translate(1474.21875 0)"/>
     <use xlink:href="#DejaVuSans-33" transform="translate(1537.841797 0)"/>
    </g>
   </g>
   <g id="text_14">
    <g id="patch_15">
     <path d="M 822.125781 822.149025 
L 1166.114219 822.149025 
Q 1168.634219 822.149025 1168.634219 819.629025 
L 1168.634219 767.018794 
Q 1168.634219 764.498794 1166.114219 764.498794 
L 822.125781 764.498794 
Q 819.605781 764.498794 819.605781 767.018794 
L 819.605781 819.629025 
Q 819.605781 822.149025 822.125781 822.149025 
z
" style="fill: #b9d8ee; stroke: #333333; stroke-width: 1.25; stroke-linejoin: miter"/>
    </g>
    <!-- LOW/MID ANOMALY n=1505 (16.3%) -->
    <g transform="translate(829.505781 788.075981) scale(0.18 -0.18)">
     <use xlink:href="#DejaVuSans-4c"/>
     <use xlink:href="#DejaVuSans-4f" transform="translate(52.087891 0)"/>
     <use xlink:href="#DejaVuSans-57" transform="translate(130.798828 0)"/>
     <use xlink:href="#DejaVuSans-2f" transform="translate(229.675781 0)"/>
     <use xlink:href="#DejaVuSans-4d" transform="translate(263.367188 0)"/>
     <use xlink:href="#DejaVuSans-49" transform="translate(349.646484 0)"/>
     <use xlink:href="#DejaVuSans-44" transform="translate(379.138672 0)"/>
     <use xlink:href="#DejaVuSans-20" transform="translate(456.140625 0)"/>
     <use xlink:href="#DejaVuSans-41" transform="translate(487.927734 0)"/>
     <use xlink:href="#DejaVuSans-4e" transform="translate(556.335938 0)"/>
     <use xlink:href="#DejaVuSans-4f" transform="translate(631.140625 0)"/>
     <use xlink:href="#DejaVuSans-4d" transform="translate(709.851562 0)"/>
     <use xlink:href="#DejaVuSans-41" transform="translate(796.130859 0)"/>
     <use xlink:href="#DejaVuSans-4c" transform="translate(864.539062 0)"/>
     <use xlink:href="#DejaVuSans-59" transform="translate(907.001953 0)"/>
     <use xlink:href="#DejaVuSans-20" transform="translate(968.085938 0)"/>
     <use xlink:href="#DejaVuSans-6e" transform="translate(999.873047 0)"/>
     <use xlink:href="#DejaVuSans-3d" transform="translate(1063.251953 0)"/>
     <use xlink:href="#DejaVuSans-31" transform="translate(1147.041016 0)"/>
     <use xlink:href="#DejaVuSans-35" transform="translate(1210.664062 0)"/>
     <use xlink:href="#DejaVuSans-30" transform="translate(1274.287109 0)"/>
     <use xlink:href="#DejaVuSans-35" transform="translate(1337.910156 0)"/>
     <use xlink:href="#DejaVuSans-20" transform="translate(1401.533203 0)"/>
     <use xlink:href="#DejaVuSans-28" transform="translate(1433.320312 0)"/>
     <use xlink:href="#DejaVuSans-31" transform="translate(1472.333984 0)"/>
     <use xlink:href="#DejaVuSans-36" transform="translate(1535.957031 0)"/>
     <use xlink:href="#DejaVuSans-2e" transform="translate(1599.580078 0)"/>
     <use xlink:href="#DejaVuSans-33" transform="translate(1631.367188 0)"/>
     <use xlink:href="#DejaVuSans-25" transform="translate(1694.990234 0)"/>
     <use xlink:href="#DejaVuSans-29" transform="translate(1790.009766 0)"/>
    </g>
    <!-- effect=0.36 SD gap=+3.07e+04 -->
    <g transform="translate(845.688906 808.505588) scale(0.18 -0.18)">
     <defs>
      <path id="DejaVuSans-37" d="M 525 4666 
L 3525 4666 
L 3525 4397 
L 1831 0 
L 1172 0 
L 2766 4134 
L 525 4134 
L 525 4666 
z
" transform="scale(0.015625)"/>
      <path id="DejaVuSans-34" d="M 2419 4116 
L 825 1625 
L 2419 1625 
L 2419 4116 
z
M 2253 4666 
L 3047 4666 
L 3047 1625 
L 3713 1625 
L 3713 1100 
L 3047 1100 
L 3047 0 
L 2419 0 
L 2419 1100 
L 313 1100 
L 313 1709 
L 2253 4666 
z
" transform="scale(0.015625)"/>
     </defs>
     <use xlink:href="#DejaVuSans-65"/>
     <use xlink:href="#DejaVuSans-66" transform="translate(61.523438 0)"/>
     <use xlink:href="#DejaVuSans-66" transform="translate(96.728516 0)"/>
     <use xlink:href="#DejaVuSans-65" transform="translate(131.933594 0)"/>
     <use xlink:href="#DejaVuSans-63" transform="translate(193.457031 0)"/>
     <use xlink:href="#DejaVuSans-74" transform="translate(248.4375 0)"/>
     <use xlink:href="#DejaVuSans-3d" transform="translate(287.646484 0)"/>
     <use xlink:href="#DejaVuSans-30" transform="translate(371.435547 0)"/>
     <use xlink:href="#DejaVuSans-2e" transform="translate(435.058594 0)"/>
     <use xlink:href="#DejaVuSans-33" transform="translate(466.845703 0)"/>
     <use xlink:href="#DejaVuSans-36" transform="translate(530.46875 0)"/>
     <use xlink:href="#DejaVuSans-20" transform="translate(594.091797 0)"/>
     <use xlink:href="#DejaVuSans-53" transform="translate(625.878906 0)"/>
     <use xlink:href="#DejaVuSans-44" transform="translate(689.355469 0)"/>
     <use xlink:href="#DejaVuSans-20" transform="translate(766.357422 0)"/>
     <use xlink:href="#DejaVuSans-67" transform="translate(798.144531 0)"/>
     <use xlink:href="#DejaVuSans-61" transform="translate(861.621094 0)"/>
     <use xlink:href="#DejaVuSans-70" transform="translate(922.900391 0)"/>
     <use xlink:href="#DejaVuSans-3d" transform="translate(986.376953 0)"/>
     <use xlink:href="#DejaVuSans-2b" transform="translate(1070.166016 0)"/>
     <use xlink:href="#DejaVuSans-33" transform="translate(1153.955078 0)"/>
     <use xlink:href="#DejaVuSans-2e" transform="translate(1217.578125 0)"/>
     <use xlink:href="#DejaVuSans-30" transform="translate(1249.365234 0)"/>
     <use xlink:href="#DejaVuSans-37" transform="translate(1312.988281 0)"/>
     <use xlink:href="#DejaVuSans-65" transform="translate(1376.611328 0)"/>
     <use xlink:href="#DejaVuSans-2b" transform="translate(1438.134766 0)"/>
     <use xlink:href="#DejaVuSans-30" transform="translate(1521.923828 0)"/>
     <use xlink:href="#DejaVuSans-34" transform="translate(1585.546875 0)"/>
    </g>
   </g>
   <g id="text_15">
    <g id="patch_16">
     <path d="M 1282.178281 822.149025 
L 1603.261719 822.149025 
Q 1605.781719 822.149025 1605.781719 819.629025 
L 1605.781719 767.018794 
Q 1605.781719 764.498794 1603.261719 764.498794 
L 1282.178281 764.498794 
Q 1279.658281 764.498794 1279.658281 767.018794 
L 1279.658281 819.629025 
Q 1279.658281 822.149025 1282.178281 822.149025 
z
" style="fill: #b9d8ee; stroke: #333333; stroke-width: 1.25; stroke-linejoin: miter"/>
    </g>
    <!-- LOW/MID ANOMALY n=461 (5.0%) -->
    <g transform="translate(1289.558281 788.075981) scale(0.18 -0.18)">
     <use xlink:href="#DejaVuSans-4c"/>
     <use xlink:href="#DejaVuSans-4f" transform="translate(52.087891 0)"/>
     <use xlink:href="#DejaVuSans-57" transform="translate(130.798828 0)"/>
     <use xlink:href="#DejaVuSans-2f" transform="translate(229.675781 0)"/>
     <use xlink:href="#DejaVuSans-4d" transform="translate(263.367188 0)"/>
     <use xlink:href="#DejaVuSans-49" transform="translate(349.646484 0)"/>
     <use xlink:href="#DejaVuSans-44" transform="translate(379.138672 0)"/>
     <use xlink:href="#DejaVuSans-20" transform="translate(456.140625 0)"/>
     <use xlink:href="#DejaVuSans-41" transform="translate(487.927734 0)"/>
     <use xlink:href="#DejaVuSans-4e" transform="translate(556.335938 0)"/>
     <use xlink:href="#DejaVuSans-4f" transform="translate(631.140625 0)"/>
     <use xlink:href="#DejaVuSans-4d" transform="translate(709.851562 0)"/>
     <use xlink:href="#DejaVuSans-41" transform="translate(796.130859 0)"/>
     <use xlink:href="#DejaVuSans-4c" transform="translate(864.539062 0)"/>
     <use xlink:href="#DejaVuSans-59" transform="translate(907.001953 0)"/>
     <use xlink:href="#DejaVuSans-20" transform="translate(968.085938 0)"/>
     <use xlink:href="#DejaVuSans-6e" transform="translate(999.873047 0)"/>
     <use xlink:href="#DejaVuSans-3d" transform="translate(1063.251953 0)"/>
     <use xlink:href="#DejaVuSans-34" transform="translate(1147.041016 0)"/>
     <use xlink:href="#DejaVuSans-36" transform="translate(1210.664062 0)"/>
     <use xlink:href="#DejaVuSans-31" transform="translate(1274.287109 0)"/>
     <use xlink:href="#DejaVuSans-20" transform="translate(1337.910156 0)"/>
     <use xlink:href="#DejaVuSans-28" transform="translate(1369.697266 0)"/>
     <use xlink:href="#DejaVuSans-35" transform="translate(1408.710938 0)"/>
     <use xlink:href="#DejaVuSans-2e" transform="translate(1472.333984 0)"/>
     <use xlink:href="#DejaVuSans-30" transform="translate(1504.121094 0)"/>
     <use xlink:href="#DejaVuSans-25" transform="translate(1567.744141 0)"/>
     <use xlink:href="#DejaVuSans-29" transform="translate(1662.763672 0)"/>
    </g>
    <!-- effect=0.07 SD gap=+1.56e+03 -->
    <g transform="translate(1294.288906 808.505588) scale(0.18 -0.18)">
     <use xlink:href="#DejaVuSans-65"/>
     <use xlink:href="#DejaVuSans-66" transform="translate(61.523438 0)"/>
     <use xlink:href="#DejaVuSans-66" transform="translate(96.728516 0)"/>
     <use xlink:href="#DejaVuSans-65" transform="translate(131.933594 0)"/>
     <use xlink:href="#DejaVuSans-63" transform="translate(193.457031 0)"/>
     <use xlink:href="#DejaVuSans-74" transform="translate(248.4375 0)"/>
     <use xlink:href="#DejaVuSans-3d" transform="translate(287.646484 0)"/>
     <use xlink:href="#DejaVuSans-30" transform="translate(371.435547 0)"/>
     <use xlink:href="#DejaVuSans-2e" transform="translate(435.058594 0)"/>
     <use xlink:href="#DejaVuSans-30" transform="translate(466.845703 0)"/>
     <use xlink:href="#DejaVuSans-37" transform="translate(530.46875 0)"/>
     <use xlink:href="#DejaVuSans-20" transform="translate(594.091797 0)"/>
     <use xlink:href="#DejaVuSans-53" transform="translate(625.878906 0)"/>
     <use xlink:href="#DejaVuSans-44" transform="translate(689.355469 0)"/>
     <use xlink:href="#DejaVuSans-20" transform="translate(766.357422 0)"/>
     <use xlink:href="#DejaVuSans-67" transform="translate(798.144531 0)"/>
     <use xlink:href="#DejaVuSans-61" transform="translate(861.621094 0)"/>
     <use xlink:href="#DejaVuSans-70" transform="translate(922.900391 0)"/>
     <use xlink:href="#DejaVuSans-3d" transform="translate(986.376953 0)"/>
     <use xlink:href="#DejaVuSans-2b" transform="translate(1070.166016 0)"/>
     <use xlink:href="#DejaVuSans-31" transform="translate(1153.955078 0)"/>
     <use xlink:href="#DejaVuSans-2e" transform="translate(1217.578125 0)"/>
     <use xlink:href="#DejaVuSans-35" transform="translate(1249.365234 0)"/>
     <use xlink:href="#DejaVuSans-36" transform="translate(1312.988281 0)"/>
     <use xlink:href="#DejaVuSans-65" transform="translate(1376.611328 0)"/>
     <use xlink:href="#DejaVuSans-2b" transform="translate(1438.134766 0)"/>
     <use xlink:href="#DejaVuSans-30" transform="translate(1521.923828 0)"/>
     <use xlink:href="#DejaVuSans-33" transform="translate(1585.546875 0)"/>
    </g>
   </g>
   <g id="text_16">
    <g id="patch_17">
     <path d="M 1058.529375 631.4086 
L 1378.310625 631.4086 
Q 1380.830625 631.4086 1380.830625 628.8886 
L 1380.830625 576.278368 
Q 1380.830625 573.758368 1378.310625 573.758368 
L 1058.529375 573.758368 
Q 1056.009375 573.758368 1056.009375 576.278368 
L 1056.009375 628.8886 
Q 1056.009375 631.4086 1058.529375 631.4086 
z
" style="fill: #ffffff; stroke: #333333; stroke-width: 1.25; stroke-linejoin: miter"/>
    </g>
    <!-- 6-month volatility wage share &lt;= -->
    <g transform="translate(1065.909375 597.335556) scale(0.18 -0.18)">
     <defs>
      <path id="DejaVuSans-6d" d="M 3328 2828 
Q 3544 3216 3844 3400 
Q 4144 3584 4550 3584 
Q 5097 3584 5394 3201 
Q 5691 2819 5691 2113 
L 5691 0 
L 5113 0 
L 5113 2094 
Q 5113 2597 4934 2840 
Q 4756 3084 4391 3084 
Q 3944 3084 3684 2787 
Q 3425 2491 3425 1978 
L 3425 0 
L 2847 0 
L 2847 2094 
Q 2847 2600 2669 2842 
Q 2491 3084 2119 3084 
Q 1678 3084 1418 2786 
Q 1159 2488 1159 1978 
L 1159 0 
L 581 0 
L 581 3500 
L 1159 3500 
L 1159 2956 
Q 1356 3278 1631 3431 
Q 1906 3584 2284 3584 
Q 2666 3584 2933 3390 
Q 3200 3197 3328 2828 
z
" transform="scale(0.015625)"/>
      <path id="DejaVuSans-6f" d="M 1959 3097 
Q 1497 3097 1228 2736 
Q 959 2375 959 1747 
Q 959 1119 1226 758 
Q 1494 397 1959 397 
Q 2419 397 2687 759 
Q 2956 1122 2956 1747 
Q 2956 2369 2687 2733 
Q 2419 3097 1959 3097 
z
M 1959 3584 
Q 2709 3584 3137 3096 
Q 3566 2609 3566 1747 
Q 3566 888 3137 398 
Q 2709 -91 1959 -91 
Q 1206 -91 779 398 
Q 353 888 353 1747 
Q 353 2609 779 3096 
Q 1206 3584 1959 3584 
z
" transform="scale(0.015625)"/>
      <path id="DejaVuSans-68" d="M 3513 2113 
L 3513 0 
L 2938 0 
L 2938 2094 
Q 2938 2591 2744 2837 
Q 2550 3084 2163 3084 
Q 1697 3084 1428 2787 
Q 1159 2491 1159 1978 
L 1159 0 
L 581 0 
L 581 4863 
L 1159 4863 
L 1159 2956 
Q 1366 3272 1645 3428 
Q 1925 3584 2291 3584 
Q 2894 3584 3203 3211 
Q 3513 2838 3513 2113 
z
" transform="scale(0.015625)"/>
      <path id="DejaVuSans-76" d="M 191 3500 
L 800 3500 
L 1894 563 
L 2988 3500 
L 3597 3500 
L 2284 0 
L 1503 0 
L 191 3500 
z
" transform="scale(0.015625)"/>
      <path id="DejaVuSans-69" d="M 603 3500 
L 1178 3500 
L 1178 0 
L 603 0 
L 603 3500 
z
M 603 4863 
L 1178 4863 
L 1178 4134 
L 603 4134 
L 603 4863 
z
" transform="scale(0.015625)"/>
      <path id="DejaVuSans-79" d="M 2059 -325 
Q 1816 -950 1584 -1140 
Q 1353 -1331 966 -1331 
L 506 -1331 
L 506 -850 
L 844 -850 
Q 1081 -850 1212 -737 
Q 1344 -625 1503 -206 
L 1606 56 
L 191 3500 
L 800 3500 
L 1894 763 
L 2988 3500 
L 3597 3500 
L 2059 -325 
z
" transform="scale(0.015625)"/>
      <path id="DejaVuSans-77" d="M 269 3500 
L 844 3500 
L 1563 769 
L 2278 3500 
L 2956 3500 
L 3675 769 
L 4391 3500 
L 4966 3500 
L 4050 0 
L 3372 0 
L 2619 2869 
L 1863 0 
L 1184 0 
L 269 3500 
z
" transform="scale(0.015625)"/>
      <path id="DejaVuSans-3c" d="M 4684 3150 
L 1459 2003 
L 4684 863 
L 4684 294 
L 678 1747 
L 678 2266 
L 4684 3719 
L 4684 3150 
z
" transform="scale(0.015625)"/>
     </defs>
     <use xlink:href="#DejaVuSans-36"/>
     <use xlink:href="#DejaVuSans-2d" transform="translate(63.623047 0)"/>
     <use xlink:href="#DejaVuSans-6d" transform="translate(99.707031 0)"/>
     <use xlink:href="#DejaVuSans-6f" transform="translate(197.119141 0)"/>
     <use xlink:href="#DejaVuSans-6e" transform="translate(258.300781 0)"/>
     <use xlink:href="#DejaVuSans-74" transform="translate(321.679688 0)"/>
     <use xlink:href="#DejaVuSans-68" transform="translate(360.888672 0)"/>
     <use xlink:href="#DejaVuSans-20" transform="translate(424.267578 0)"/>
     <use xlink:href="#DejaVuSans-76" transform="translate(456.054688 0)"/>
     <use xlink:href="#DejaVuSans-6f" transform="translate(515.234375 0)"/>
     <use xlink:href="#DejaVuSans-6c" transform="translate(576.416016 0)"/>
     <use xlink:href="#DejaVuSans-61" transform="translate(604.199219 0)"/>
     <use xlink:href="#DejaVuSans-74" transform="translate(665.478516 0)"/>
     <use xlink:href="#DejaVuSans-69" transform="translate(704.6875 0)"/>
     <use xlink:href="#DejaVuSans-6c" transform="translate(732.470703 0)"/>
     <use xlink:href="#DejaVuSans-69" transform="translate(760.253906 0)"/>
     <use xlink:href="#DejaVuSans-74" transform="translate(788.037109 0)"/>
     <use xlink:href="#DejaVuSans-79" transform="translate(827.246094 0)"/>
     <use xlink:href="#DejaVuSans-20" transform="translate(886.425781 0)"/>
     <use xlink:href="#DejaVuSans-77" transform="translate(918.212891 0)"/>
     <use xlink:href="#DejaVuSans-61" transform="translate(1000 0)"/>
     <use xlink:href="#DejaVuSans-67" transform="translate(1061.279297 0)"/>
     <use xlink:href="#DejaVuSans-65" transform="translate(1124.755859 0)"/>
     <use xlink:href="#DejaVuSans-20" transform="translate(1186.279297 0)"/>
     <use xlink:href="#DejaVuSans-73" transform="translate(1218.066406 0)"/>
     <use xlink:href="#DejaVuSans-68" transform="translate(1270.166016 0)"/>
     <use xlink:href="#DejaVuSans-61" transform="translate(1333.544922 0)"/>
     <use xlink:href="#DejaVuSans-72" transform="translate(1394.824219 0)"/>
     <use xlink:href="#DejaVuSans-65" transform="translate(1433.6875 0)"/>
     <use xlink:href="#DejaVuSans-20" transform="translate(1495.210938 0)"/>
     <use xlink:href="#DejaVuSans-3c" transform="translate(1526.998047 0)"/>
     <use xlink:href="#DejaVuSans-3d" transform="translate(1610.787109 0)"/>
    </g>
    <!-- 0.3172 -->
    <g transform="translate(1186.928437 617.765162) scale(0.18 -0.18)">
     <use xlink:href="#DejaVuSans-30"/>
     <use xlink:href="#DejaVuSans-2e" transform="translate(63.623047 0)"/>
     <use xlink:href="#DejaVuSans-33" transform="translate(95.410156 0)"/>
     <use xlink:href="#DejaVuSans-31" transform="translate(159.033203 0)"/>
     <use xlink:href="#DejaVuSans-37" transform="translate(222.65625 0)"/>
     <use xlink:href="#DejaVuSans-32" transform="translate(286.279297 0)"/>
    </g>
   </g>
   <g id="text_17">
    <g id="patch_18">
     <path d="M 720.45375 440.668174 
L 1043.48625 440.668174 
Q 1046.00625 440.668174 1046.00625 438.148174 
L 1046.00625 385.537943 
Q 1046.00625 383.017943 1043.48625 383.017943 
L 720.45375 383.017943 
Q 717.93375 383.017943 717.93375 385.537943 
L 717.93375 438.148174 
Q 717.93375 440.668174 720.45375 440.668174 
z
" style="fill: #ffffff; stroke: #333333; stroke-width: 1.25; stroke-linejoin: miter"/>
    </g>
    <!-- 4-month change in capital income -->
    <g transform="translate(727.83375 406.59513) scale(0.18 -0.18)">
     <use xlink:href="#DejaVuSans-34"/>
     <use xlink:href="#DejaVuSans-2d" transform="translate(63.623047 0)"/>
     <use xlink:href="#DejaVuSans-6d" transform="translate(99.707031 0)"/>
     <use xlink:href="#DejaVuSans-6f" transform="translate(197.119141 0)"/>
     <use xlink:href="#DejaVuSans-6e" transform="translate(258.300781 0)"/>
     <use xlink:href="#DejaVuSans-74" transform="translate(321.679688 0)"/>
     <use xlink:href="#DejaVuSans-68" transform="translate(360.888672 0)"/>
     <use xlink:href="#DejaVuSans-20" transform="translate(424.267578 0)"/>
     <use xlink:href="#DejaVuSans-63" transform="translate(456.054688 0)"/>
     <use xlink:href="#DejaVuSans-68" transform="translate(511.035156 0)"/>
     <use xlink:href="#DejaVuSans-61" transform="translate(574.414062 0)"/>
     <use xlink:href="#DejaVuSans-6e" transform="translate(635.693359 0)"/>
     <use xlink:href="#DejaVuSans-67" transform="translate(699.072266 0)"/>
     <use xlink:href="#DejaVuSans-65" transform="translate(762.548828 0)"/>
     <use xlink:href="#DejaVuSans-20" transform="translate(824.072266 0)"/>
     <use xlink:href="#DejaVuSans-69" transform="translate(855.859375 0)"/>
     <use xlink:href="#DejaVuSans-6e" transform="translate(883.642578 0)"/>
     <use xlink:href="#DejaVuSans-20" transform="translate(947.021484 0)"/>
     <use xlink:href="#DejaVuSans-63" transform="translate(978.808594 0)"/>
     <use xlink:href="#DejaVuSans-61" transform="translate(1033.789062 0)"/>
     <use xlink:href="#DejaVuSans-70" transform="translate(1095.068359 0)"/>
     <use xlink:href="#DejaVuSans-69" transform="translate(1158.544922 0)"/>
     <use xlink:href="#DejaVuSans-74" transform="translate(1186.328125 0)"/>
     <use xlink:href="#DejaVuSans-61" transform="translate(1225.537109 0)"/>
     <use xlink:href="#DejaVuSans-6c" transform="translate(1286.816406 0)"/>
     <use xlink:href="#DejaVuSans-20" transform="translate(1314.599609 0)"/>
     <use xlink:href="#DejaVuSans-69" transform="translate(1346.386719 0)"/>
     <use xlink:href="#DejaVuSans-6e" transform="translate(1374.169922 0)"/>
     <use xlink:href="#DejaVuSans-63" transform="translate(1437.548828 0)"/>
     <use xlink:href="#DejaVuSans-6f" transform="translate(1492.529297 0)"/>
     <use xlink:href="#DejaVuSans-6d" transform="translate(1553.710938 0)"/>
     <use xlink:href="#DejaVuSans-65" transform="translate(1651.123047 0)"/>
    </g>
    <!-- share &lt;= -0.3866 -->
    <g transform="translate(801.484688 427.024737) scale(0.18 -0.18)">
     <defs>
      <path id="DejaVuSans-38" d="M 2034 2216 
Q 1584 2216 1326 1975 
Q 1069 1734 1069 1313 
Q 1069 891 1326 650 
Q 1584 409 2034 409 
Q 2484 409 2743 651 
Q 3003 894 3003 1313 
Q 3003 1734 2745 1975 
Q 2488 2216 2034 2216 
z
M 1403 2484 
Q 997 2584 770 2862 
Q 544 3141 544 3541 
Q 544 4100 942 4425 
Q 1341 4750 2034 4750 
Q 2731 4750 3128 4425 
Q 3525 4100 3525 3541 
Q 3525 3141 3298 2862 
Q 3072 2584 2669 2484 
Q 3125 2378 3379 2068 
Q 3634 1759 3634 1313 
Q 3634 634 3220 271 
Q 2806 -91 2034 -91 
Q 1263 -91 848 271 
Q 434 634 434 1313 
Q 434 1759 690 2068 
Q 947 2378 1403 2484 
z
M 1172 3481 
Q 1172 3119 1398 2916 
Q 1625 2713 2034 2713 
Q 2441 2713 2670 2916 
Q 2900 3119 2900 3481 
Q 2900 3844 2670 4047 
Q 2441 4250 2034 4250 
Q 1625 4250 1398 4047 
Q 1172 3844 1172 3481 
z
" transform="scale(0.015625)"/>
     </defs>
     <use xlink:href="#DejaVuSans-73"/>
     <use xlink:href="#DejaVuSans-68" transform="translate(52.099609 0)"/>
     <use xlink:href="#DejaVuSans-61" transform="translate(115.478516 0)"/>
     <use xlink:href="#DejaVuSans-72" transform="translate(176.757812 0)"/>
     <use xlink:href="#DejaVuSans-65" transform="translate(215.621094 0)"/>
     <use xlink:href="#DejaVuSans-20" transform="translate(277.144531 0)"/>
     <use xlink:href="#DejaVuSans-3c" transform="translate(308.931641 0)"/>
     <use xlink:href="#DejaVuSans-3d" transform="translate(392.720703 0)"/>
     <use xlink:href="#DejaVuSans-20" transform="translate(476.509766 0)"/>
     <use xlink:href="#DejaVuSans-2d" transform="translate(508.296875 0)"/>
     <use xlink:href="#DejaVuSans-30" transform="translate(544.380859 0)"/>
     <use xlink:href="#DejaVuSans-2e" transform="translate(608.003906 0)"/>
     <use xlink:href="#DejaVuSans-33" transform="translate(639.791016 0)"/>
     <use xlink:href="#DejaVuSans-38" transform="translate(703.414062 0)"/>
     <use xlink:href="#DejaVuSans-36" transform="translate(767.037109 0)"/>
     <use xlink:href="#DejaVuSans-36" transform="translate(830.660156 0)"/>
    </g>
   </g>
   <g id="text_18">
    <g id="patch_19">
     <path d="M 1739.803594 822.149025 
L 2042.836406 822.149025 
Q 2045.356406 822.149025 2045.356406 819.629025 
L 2045.356406 767.018794 
Q 2045.356406 764.498794 2042.836406 764.498794 
L 1739.803594 764.498794 
Q 1737.283594 764.498794 1737.283594 767.018794 
L 1737.283594 819.629025 
Q 1737.283594 822.149025 1739.803594 822.149025 
z
" style="fill: #b9d8ee; stroke: #333333; stroke-width: 1.25; stroke-linejoin: miter"/>
    </g>
    <!-- LOW/MID ANOMALY n=7 (0.1%) -->
    <g transform="translate(1749.610781 788.075981) scale(0.18 -0.18)">
     <use xlink:href="#DejaVuSans-4c"/>
     <use xlink:href="#DejaVuSans-4f" transform="translate(52.087891 0)"/>
     <use xlink:href="#DejaVuSans-57" transform="translate(130.798828 0)"/>
     <use xlink:href="#DejaVuSans-2f" transform="translate(229.675781 0)"/>
     <use xlink:href="#DejaVuSans-4d" transform="translate(263.367188 0)"/>
     <use xlink:href="#DejaVuSans-49" transform="translate(349.646484 0)"/>
     <use xlink:href="#DejaVuSans-44" transform="translate(379.138672 0)"/>
     <use xlink:href="#DejaVuSans-20" transform="translate(456.140625 0)"/>
     <use xlink:href="#DejaVuSans-41" transform="translate(487.927734 0)"/>
     <use xlink:href="#DejaVuSans-4e" transform="translate(556.335938 0)"/>
     <use xlink:href="#DejaVuSans-4f" transform="translate(631.140625 0)"/>
     <use xlink:href="#DejaVuSans-4d" transform="translate(709.851562 0)"/>
     <use xlink:href="#DejaVuSans-41" transform="translate(796.130859 0)"/>
     <use xlink:href="#DejaVuSans-4c" transform="translate(864.539062 0)"/>
     <use xlink:href="#DejaVuSans-59" transform="translate(907.001953 0)"/>
     <use xlink:href="#DejaVuSans-20" transform="translate(968.085938 0)"/>
     <use xlink:href="#DejaVuSans-6e" transform="translate(999.873047 0)"/>
     <use xlink:href="#DejaVuSans-3d" transform="translate(1063.251953 0)"/>
     <use xlink:href="#DejaVuSans-37" transform="translate(1147.041016 0)"/>
     <use xlink:href="#DejaVuSans-20" transform="translate(1210.664062 0)"/>
     <use xlink:href="#DejaVuSans-28" transform="translate(1242.451172 0)"/>
     <use xlink:href="#DejaVuSans-30" transform="translate(1281.464844 0)"/>
     <use xlink:href="#DejaVuSans-2e" transform="translate(1345.087891 0)"/>
     <use xlink:href="#DejaVuSans-31" transform="translate(1376.875 0)"/>
     <use xlink:href="#DejaVuSans-25" transform="translate(1440.498047 0)"/>
     <use xlink:href="#DejaVuSans-29" transform="translate(1535.517578 0)"/>
    </g>
    <!-- effect=1.17 SD gap=-5.96e+04 -->
    <g transform="translate(1747.183594 808.505588) scale(0.18 -0.18)">
     <defs>
      <path id="DejaVuSans-39" d="M 703 97 
L 703 672 
Q 941 559 1184 500 
Q 1428 441 1663 441 
Q 2288 441 2617 861 
Q 2947 1281 2994 2138 
Q 2813 1869 2534 1725 
Q 2256 1581 1919 1581 
Q 1219 1581 811 2004 
Q 403 2428 403 3163 
Q 403 3881 828 4315 
Q 1253 4750 1959 4750 
Q 2769 4750 3195 4129 
Q 3622 3509 3622 2328 
Q 3622 1225 3098 567 
Q 2575 -91 1691 -91 
Q 1453 -91 1209 -44 
Q 966 3 703 97 
z
M 1959 2075 
Q 2384 2075 2632 2365 
Q 2881 2656 2881 3163 
Q 2881 3666 2632 3958 
Q 2384 4250 1959 4250 
Q 1534 4250 1286 3958 
Q 1038 3666 1038 3163 
Q 1038 2656 1286 2365 
Q 1534 2075 1959 2075 
z
" transform="scale(0.015625)"/>
     </defs>
     <use xlink:href="#DejaVuSans-65"/>
     <use xlink:href="#DejaVuSans-66" transform="translate(61.523438 0)"/>
     <use xlink:href="#DejaVuSans-66" transform="translate(96.728516 0)"/>
     <use xlink:href="#DejaVuSans-65" transform="translate(131.933594 0)"/>
     <use xlink:href="#DejaVuSans-63" transform="translate(193.457031 0)"/>
     <use xlink:href="#DejaVuSans-74" transform="translate(248.4375 0)"/>
     <use xlink:href="#DejaVuSans-3d" transform="translate(287.646484 0)"/>
     <use xlink:href="#DejaVuSans-31" transform="translate(371.435547 0)"/>
     <use xlink:href="#DejaVuSans-2e" transform="translate(435.058594 0)"/>
     <use xlink:href="#DejaVuSans-31" transform="translate(466.845703 0)"/>
     <use xlink:href="#DejaVuSans-37" transform="translate(530.46875 0)"/>
     <use xlink:href="#DejaVuSans-20" transform="translate(594.091797 0)"/>
     <use xlink:href="#DejaVuSans-53" transform="translate(625.878906 0)"/>
     <use xlink:href="#DejaVuSans-44" transform="translate(689.355469 0)"/>
     <use xlink:href="#DejaVuSans-20" transform="translate(766.357422 0)"/>
     <use xlink:href="#DejaVuSans-67" transform="translate(798.144531 0)"/>
     <use xlink:href="#DejaVuSans-61" transform="translate(861.621094 0)"/>
     <use xlink:href="#DejaVuSans-70" transform="translate(922.900391 0)"/>
     <use xlink:href="#DejaVuSans-3d" transform="translate(986.376953 0)"/>
     <use xlink:href="#DejaVuSans-2d" transform="translate(1070.166016 0)"/>
     <use xlink:href="#DejaVuSans-35" transform="translate(1106.25 0)"/>
     <use xlink:href="#DejaVuSans-2e" transform="translate(1169.873047 0)"/>
     <use xlink:href="#DejaVuSans-39" transform="translate(1201.660156 0)"/>
     <use xlink:href="#DejaVuSans-36" transform="translate(1265.283203 0)"/>
     <use xlink:href="#DejaVuSans-65" transform="translate(1328.90625 0)"/>
     <use xlink:href="#DejaVuSans-2b" transform="translate(1390.429688 0)"/>
     <use xlink:href="#DejaVuSans-30" transform="translate(1474.21875 0)"/>
     <use xlink:href="#DejaVuSans-34" transform="translate(1537.841797 0)"/>
    </g>
   </g>
   <g id="text_19">
    <g id="patch_20">
     <path d="M 2167.925781 822.149025 
L 2511.914219 822.149025 
Q 2514.434219 822.149025 2514.434219 819.629025 
L 2514.434219 767.018794 
Q 2514.434219 764.498794 2511.914219 764.498794 
L 2167.925781 764.498794 
Q 2165.405781 764.498794 2165.405781 767.018794 
L 2165.405781 819.629025 
Q 2165.405781 822.149025 2167.925781 822.149025 
z
" style="fill: #b9d8ee; stroke: #333333; stroke-width: 1.25; stroke-linejoin: miter"/>
    </g>
    <!-- LOW/MID ANOMALY n=1785 (19.3%) -->
    <g transform="translate(2175.305781 788.075981) scale(0.18 -0.18)">
     <use xlink:href="#DejaVuSans-4c"/>
     <use xlink:href="#DejaVuSans-4f" transform="translate(52.087891 0)"/>
     <use xlink:href="#DejaVuSans-57" transform="translate(130.798828 0)"/>
     <use xlink:href="#DejaVuSans-2f" transform="translate(229.675781 0)"/>
     <use xlink:href="#DejaVuSans-4d" transform="translate(263.367188 0)"/>
     <use xlink:href="#DejaVuSans-49" transform="translate(349.646484 0)"/>
     <use xlink:href="#DejaVuSans-44" transform="translate(379.138672 0)"/>
     <use xlink:href="#DejaVuSans-20" transform="translate(456.140625 0)"/>
     <use xlink:href="#DejaVuSans-41" transform="translate(487.927734 0)"/>
     <use xlink:href="#DejaVuSans-4e" transform="translate(556.335938 0)"/>
     <use xlink:href="#DejaVuSans-4f" transform="translate(631.140625 0)"/>
     <use xlink:href="#DejaVuSans-4d" transform="translate(709.851562 0)"/>
     <use xlink:href="#DejaVuSans-41" transform="translate(796.130859 0)"/>
     <use xlink:href="#DejaVuSans-4c" transform="translate(864.539062 0)"/>
     <use xlink:href="#DejaVuSans-59" transform="translate(907.001953 0)"/>
     <use xlink:href="#DejaVuSans-20" transform="translate(968.085938 0)"/>
     <use xlink:href="#DejaVuSans-6e" transform="translate(999.873047 0)"/>
     <use xlink:href="#DejaVuSans-3d" transform="translate(1063.251953 0)"/>
     <use xlink:href="#DejaVuSans-31" transform="translate(1147.041016 0)"/>
     <use xlink:href="#DejaVuSans-37" transform="translate(1210.664062 0)"/>
     <use xlink:href="#DejaVuSans-38" transform="translate(1274.287109 0)"/>
     <use xlink:href="#DejaVuSans-35" transform="translate(1337.910156 0)"/>
     <use xlink:href="#DejaVuSans-20" transform="translate(1401.533203 0)"/>
     <use xlink:href="#DejaVuSans-28" transform="translate(1433.320312 0)"/>
     <use xlink:href="#DejaVuSans-31" transform="translate(1472.333984 0)"/>
     <use xlink:href="#DejaVuSans-39" transform="translate(1535.957031 0)"/>
     <use xlink:href="#DejaVuSans-2e" transform="translate(1599.580078 0)"/>
     <use xlink:href="#DejaVuSans-33" transform="translate(1631.367188 0)"/>
     <use xlink:href="#DejaVuSans-25" transform="translate(1694.990234 0)"/>
     <use xlink:href="#DejaVuSans-29" transform="translate(1790.009766 0)"/>
    </g>
    <!-- effect=0.03 SD gap=-1.28e+03 -->
    <g transform="translate(2195.783594 808.505588) scale(0.18 -0.18)">
     <use xlink:href="#DejaVuSans-65"/>
     <use xlink:href="#DejaVuSans-66" transform="translate(61.523438 0)"/>
     <use xlink:href="#DejaVuSans-66" transform="translate(96.728516 0)"/>
     <use xlink:href="#DejaVuSans-65" transform="translate(131.933594 0)"/>
     <use xlink:href="#DejaVuSans-63" transform="translate(193.457031 0)"/>
     <use xlink:href="#DejaVuSans-74" transform="translate(248.4375 0)"/>
     <use xlink:href="#DejaVuSans-3d" transform="translate(287.646484 0)"/>
     <use xlink:href="#DejaVuSans-30" transform="translate(371.435547 0)"/>
     <use xlink:href="#DejaVuSans-2e" transform="translate(435.058594 0)"/>
     <use xlink:href="#DejaVuSans-30" transform="translate(466.845703 0)"/>
     <use xlink:href="#DejaVuSans-33" transform="translate(530.46875 0)"/>
     <use xlink:href="#DejaVuSans-20" transform="translate(594.091797 0)"/>
     <use xlink:href="#DejaVuSans-53" transform="translate(625.878906 0)"/>
     <use xlink:href="#DejaVuSans-44" transform="translate(689.355469 0)"/>
     <use xlink:href="#DejaVuSans-20" transform="translate(766.357422 0)"/>
     <use xlink:href="#DejaVuSans-67" transform="translate(798.144531 0)"/>
     <use xlink:href="#DejaVuSans-61" transform="translate(861.621094 0)"/>
     <use xlink:href="#DejaVuSans-70" transform="translate(922.900391 0)"/>
     <use xlink:href="#DejaVuSans-3d" transform="translate(986.376953 0)"/>
     <use xlink:href="#DejaVuSans-2d" transform="translate(1070.166016 0)"/>
     <use xlink:href="#DejaVuSans-31" transform="translate(1106.25 0)"/>
     <use xlink:href="#DejaVuSans-2e" transform="translate(1169.873047 0)"/>
     <use xlink:href="#DejaVuSans-32" transform="translate(1201.660156 0)"/>
     <use xlink:href="#DejaVuSans-38" transform="translate(1265.283203 0)"/>
     <use xlink:href="#DejaVuSans-65" transform="translate(1328.90625 0)"/>
     <use xlink:href="#DejaVuSans-2b" transform="translate(1390.429688 0)"/>
     <use xlink:href="#DejaVuSans-30" transform="translate(1474.21875 0)"/>
     <use xlink:href="#DejaVuSans-33" transform="translate(1537.841797 0)"/>
    </g>
   </g>
   <g id="text_20">
    <g id="patch_21">
     <path d="M 1940.051094 621.193797 
L 2291.188906 621.193797 
Q 2293.708906 621.193797 2293.708906 618.673797 
L 2293.708906 586.493172 
Q 2293.708906 583.973172 2291.188906 583.973172 
L 1940.051094 583.973172 
Q 1937.531094 583.973172 1937.531094 586.493172 
L 1937.531094 618.673797 
Q 1937.531094 621.193797 1940.051094 621.193797 
z
" style="fill: #ffffff; stroke: #333333; stroke-width: 1.25; stroke-linejoin: miter"/>
    </g>
    <!-- 20-month mean biz share &lt;= 0.0258 -->
    <g transform="translate(1947.431094 607.550359) scale(0.18 -0.18)">
     <defs>
      <path id="DejaVuSans-62" d="M 3116 1747 
Q 3116 2381 2855 2742 
Q 2594 3103 2138 3103 
Q 1681 3103 1420 2742 
Q 1159 2381 1159 1747 
Q 1159 1113 1420 752 
Q 1681 391 2138 391 
Q 2594 391 2855 752 
Q 3116 1113 3116 1747 
z
M 1159 2969 
Q 1341 3281 1617 3432 
Q 1894 3584 2278 3584 
Q 2916 3584 3314 3078 
Q 3713 2572 3713 1747 
Q 3713 922 3314 415 
Q 2916 -91 2278 -91 
Q 1894 -91 1617 61 
Q 1341 213 1159 525 
L 1159 0 
L 581 0 
L 581 4863 
L 1159 4863 
L 1159 2969 
z
" transform="scale(0.015625)"/>
      <path id="DejaVuSans-7a" d="M 353 3500 
L 3084 3500 
L 3084 2975 
L 922 459 
L 3084 459 
L 3084 0 
L 275 0 
L 275 525 
L 2438 3041 
L 353 3041 
L 353 3500 
z
" transform="scale(0.015625)"/>
     </defs>
     <use xlink:href="#DejaVuSans-32"/>
     <use xlink:href="#DejaVuSans-30" transform="translate(63.623047 0)"/>
     <use xlink:href="#DejaVuSans-2d" transform="translate(127.246094 0)"/>
     <use xlink:href="#DejaVuSans-6d" transform="translate(163.330078 0)"/>
     <use xlink:href="#DejaVuSans-6f" transform="translate(260.742188 0)"/>
     <use xlink:href="#DejaVuSans-6e" transform="translate(321.923828 0)"/>
     <use xlink:href="#DejaVuSans-74" transform="translate(385.302734 0)"/>
     <use xlink:href="#DejaVuSans-68" transform="translate(424.511719 0)"/>
     <use xlink:href="#DejaVuSans-20" transform="translate(487.890625 0)"/>
     <use xlink:href="#DejaVuSans-6d" transform="translate(519.677734 0)"/>
     <use xlink:href="#DejaVuSans-65" transform="translate(617.089844 0)"/>
     <use xlink:href="#DejaVuSans-61" transform="translate(678.613281 0)"/>
     <use xlink:href="#DejaVuSans-6e" transform="translate(739.892578 0)"/>
     <use xlink:href="#DejaVuSans-20" transform="translate(803.271484 0)"/>
     <use xlink:href="#DejaVuSans-62" transform="translate(835.058594 0)"/>
     <use xlink:href="#DejaVuSans-69" transform="translate(898.535156 0)"/>
     <use xlink:href="#DejaVuSans-7a" transform="translate(926.318359 0)"/>
     <use xlink:href="#DejaVuSans-20" transform="translate(978.808594 0)"/>
     <use xlink:href="#DejaVuSans-73" transform="translate(1010.595703 0)"/>
     <use xlink:href="#DejaVuSans-68" transform="translate(1062.695312 0)"/>
     <use xlink:href="#DejaVuSans-61" transform="translate(1126.074219 0)"/>
     <use xlink:href="#DejaVuSans-72" transform="translate(1187.353516 0)"/>
     <use xlink:href="#DejaVuSans-65" transform="translate(1226.216797 0)"/>
     <use xlink:href="#DejaVuSans-20" transform="translate(1287.740234 0)"/>
     <use xlink:href="#DejaVuSans-3c" transform="translate(1319.527344 0)"/>
     <use xlink:href="#DejaVuSans-3d" transform="translate(1403.316406 0)"/>
     <use xlink:href="#DejaVuSans-20" transform="translate(1487.105469 0)"/>
     <use xlink:href="#DejaVuSans-30" transform="translate(1518.892578 0)"/>
     <use xlink:href="#DejaVuSans-2e" transform="translate(1582.515625 0)"/>
     <use xlink:href="#DejaVuSans-30" transform="translate(1614.302734 0)"/>
     <use xlink:href="#DejaVuSans-32" transform="translate(1677.925781 0)"/>
     <use xlink:href="#DejaVuSans-35" transform="translate(1741.548828 0)"/>
     <use xlink:href="#DejaVuSans-38" transform="translate(1805.171875 0)"/>
    </g>
   </g>
   <g id="text_21">
    <g id="patch_22">
     <path d="M 2627.978281 822.149025 
L 2949.061719 822.149025 
Q 2951.581719 822.149025 2951.581719 819.629025 
L 2951.581719 767.018794 
Q 2951.581719 764.498794 2949.061719 764.498794 
L 2627.978281 764.498794 
Q 2625.458281 764.498794 2625.458281 767.018794 
L 2625.458281 819.629025 
Q 2625.458281 822.149025 2627.978281 822.149025 
z
" style="fill: #b9d8ee; stroke: #333333; stroke-width: 1.25; stroke-linejoin: miter"/>
    </g>
    <!-- LOW/MID ANOMALY n=229 (2.5%) -->
    <g transform="translate(2635.358281 788.075981) scale(0.18 -0.18)">
     <use xlink:href="#DejaVuSans-4c"/>
     <use xlink:href="#DejaVuSans-4f" transform="translate(52.087891 0)"/>
     <use xlink:href="#DejaVuSans-57" transform="translate(130.798828 0)"/>
     <use xlink:href="#DejaVuSans-2f" transform="translate(229.675781 0)"/>
     <use xlink:href="#DejaVuSans-4d" transform="translate(263.367188 0)"/>
     <use xlink:href="#DejaVuSans-49" transform="translate(349.646484 0)"/>
     <use xlink:href="#DejaVuSans-44" transform="translate(379.138672 0)"/>
     <use xlink:href="#DejaVuSans-20" transform="translate(456.140625 0)"/>
     <use xlink:href="#DejaVuSans-41" transform="translate(487.927734 0)"/>
     <use xlink:href="#DejaVuSans-4e" transform="translate(556.335938 0)"/>
     <use xlink:href="#DejaVuSans-4f" transform="translate(631.140625 0)"/>
     <use xlink:href="#DejaVuSans-4d" transform="translate(709.851562 0)"/>
     <use xlink:href="#DejaVuSans-41" transform="translate(796.130859 0)"/>
     <use xlink:href="#DejaVuSans-4c" transform="translate(864.539062 0)"/>
     <use xlink:href="#DejaVuSans-59" transform="translate(907.001953 0)"/>
     <use xlink:href="#DejaVuSans-20" transform="translate(968.085938 0)"/>
     <use xlink:href="#DejaVuSans-6e" transform="translate(999.873047 0)"/>
     <use xlink:href="#DejaVuSans-3d" transform="translate(1063.251953 0)"/>
     <use xlink:href="#DejaVuSans-32" transform="translate(1147.041016 0)"/>
     <use xlink:href="#DejaVuSans-32" transform="translate(1210.664062 0)"/>
     <use xlink:href="#DejaVuSans-39" transform="translate(1274.287109 0)"/>
     <use xlink:href="#DejaVuSans-20" transform="translate(1337.910156 0)"/>
     <use xlink:href="#DejaVuSans-28" transform="translate(1369.697266 0)"/>
     <use xlink:href="#DejaVuSans-32" transform="translate(1408.710938 0)"/>
     <use xlink:href="#DejaVuSans-2e" transform="translate(1472.333984 0)"/>
     <use xlink:href="#DejaVuSans-35" transform="translate(1504.121094 0)"/>
     <use xlink:href="#DejaVuSans-25" transform="translate(1567.744141 0)"/>
     <use xlink:href="#DejaVuSans-29" transform="translate(1662.763672 0)"/>
    </g>
    <!-- effect=0.13 SD gap=+6.26e+03 -->
    <g transform="translate(2640.088906 808.505588) scale(0.18 -0.18)">
     <use xlink:href="#DejaVuSans-65"/>
     <use xlink:href="#DejaVuSans-66" transform="translate(61.523438 0)"/>
     <use xlink:href="#DejaVuSans-66" transform="translate(96.728516 0)"/>
     <use xlink:href="#DejaVuSans-65" transform="translate(131.933594 0)"/>
     <use xlink:href="#DejaVuSans-63" transform="translate(193.457031 0)"/>
     <use xlink:href="#DejaVuSans-74" transform="translate(248.4375 0)"/>
     <use xlink:href="#DejaVuSans-3d" transform="translate(287.646484 0)"/>
     <use xlink:href="#DejaVuSans-30" transform="translate(371.435547 0)"/>
     <use xlink:href="#DejaVuSans-2e" transform="translate(435.058594 0)"/>
     <use xlink:href="#DejaVuSans-31" transform="translate(466.845703 0)"/>
     <use xlink:href="#DejaVuSans-33" transform="translate(530.46875 0)"/>
     <use xlink:href="#DejaVuSans-20" transform="translate(594.091797 0)"/>
     <use xlink:href="#DejaVuSans-53" transform="translate(625.878906 0)"/>
     <use xlink:href="#DejaVuSans-44" transform="translate(689.355469 0)"/>
     <use xlink:href="#DejaVuSans-20" transform="translate(766.357422 0)"/>
     <use xlink:href="#DejaVuSans-67" transform="translate(798.144531 0)"/>
     <use xlink:href="#DejaVuSans-61" transform="translate(861.621094 0)"/>
     <use xlink:href="#DejaVuSans-70" transform="translate(922.900391 0)"/>
     <use xlink:href="#DejaVuSans-3d" transform="translate(986.376953 0)"/>
     <use xlink:href="#DejaVuSans-2b" transform="translate(1070.166016 0)"/>
     <use xlink:href="#DejaVuSans-36" transform="translate(1153.955078 0)"/>
     <use xlink:href="#DejaVuSans-2e" transform="translate(1217.578125 0)"/>
     <use xlink:href="#DejaVuSans-32" transform="translate(1249.365234 0)"/>
     <use xlink:href="#DejaVuSans-36" transform="translate(1312.988281 0)"/>
     <use xlink:href="#DejaVuSans-65" transform="translate(1376.611328 0)"/>
     <use xlink:href="#DejaVuSans-2b" transform="translate(1438.134766 0)"/>
     <use xlink:href="#DejaVuSans-30" transform="translate(1521.923828 0)"/>
     <use xlink:href="#DejaVuSans-33" transform="translate(1585.546875 0)"/>
    </g>
   </g>
   <g id="text_22">
    <g id="patch_23">
     <path d="M 3065.125781 822.149025 
L 3409.114219 822.149025 
Q 3411.634219 822.149025 3411.634219 819.629025 
L 3411.634219 767.018794 
Q 3411.634219 764.498794 3409.114219 764.498794 
L 3065.125781 764.498794 
Q 3062.605781 764.498794 3062.605781 767.018794 
L 3062.605781 819.629025 
Q 3062.605781 822.149025 3065.125781 822.149025 
z
" style="fill: #b9d8ee; stroke: #333333; stroke-width: 1.25; stroke-linejoin: miter"/>
    </g>
    <!-- LOW/MID ANOMALY n=5227 (56.6%) -->
    <g transform="translate(3072.505781 788.075981) scale(0.18 -0.18)">
     <use xlink:href="#DejaVuSans-4c"/>
     <use xlink:href="#DejaVuSans-4f" transform="translate(52.087891 0)"/>
     <use xlink:href="#DejaVuSans-57" transform="translate(130.798828 0)"/>
     <use xlink:href="#DejaVuSans-2f" transform="translate(229.675781 0)"/>
     <use xlink:href="#DejaVuSans-4d" transform="translate(263.367188 0)"/>
     <use xlink:href="#DejaVuSans-49" transform="translate(349.646484 0)"/>
     <use xlink:href="#DejaVuSans-44" transform="translate(379.138672 0)"/>
     <use xlink:href="#DejaVuSans-20" transform="translate(456.140625 0)"/>
     <use xlink:href="#DejaVuSans-41" transform="translate(487.927734 0)"/>
     <use xlink:href="#DejaVuSans-4e" transform="translate(556.335938 0)"/>
     <use xlink:href="#DejaVuSans-4f" transform="translate(631.140625 0)"/>
     <use xlink:href="#DejaVuSans-4d" transform="translate(709.851562 0)"/>
     <use xlink:href="#DejaVuSans-41" transform="translate(796.130859 0)"/>
     <use xlink:href="#DejaVuSans-4c" transform="translate(864.539062 0)"/>
     <use xlink:href="#DejaVuSans-59" transform="translate(907.001953 0)"/>
     <use xlink:href="#DejaVuSans-20" transform="translate(968.085938 0)"/>
     <use xlink:href="#DejaVuSans-6e" transform="translate(999.873047 0)"/>
     <use xlink:href="#DejaVuSans-3d" transform="translate(1063.251953 0)"/>
     <use xlink:href="#DejaVuSans-35" transform="translate(1147.041016 0)"/>
     <use xlink:href="#DejaVuSans-32" transform="translate(1210.664062 0)"/>
     <use xlink:href="#DejaVuSans-32" transform="translate(1274.287109 0)"/>
     <use xlink:href="#DejaVuSans-37" transform="translate(1337.910156 0)"/>
     <use xlink:href="#DejaVuSans-20" transform="translate(1401.533203 0)"/>
     <use xlink:href="#DejaVuSans-28" transform="translate(1433.320312 0)"/>
     <use xlink:href="#DejaVuSans-35" transform="translate(1472.333984 0)"/>
     <use xlink:href="#DejaVuSans-36" transform="translate(1535.957031 0)"/>
     <use xlink:href="#DejaVuSans-2e" transform="translate(1599.580078 0)"/>
     <use xlink:href="#DejaVuSans-36" transform="translate(1631.367188 0)"/>
     <use xlink:href="#DejaVuSans-25" transform="translate(1694.990234 0)"/>
     <use xlink:href="#DejaVuSans-29" transform="translate(1790.009766 0)"/>
    </g>
    <!-- effect=0.10 SD gap=-8.72e+03 -->
    <g transform="translate(3092.983594 808.505588) scale(0.18 -0.18)">
     <use xlink:href="#DejaVuSans-65"/>
     <use xlink:href="#DejaVuSans-66" transform="translate(61.523438 0)"/>
     <use xlink:href="#DejaVuSans-66" transform="translate(96.728516 0)"/>
     <use xlink:href="#DejaVuSans-65" transform="translate(131.933594 0)"/>
     <use xlink:href="#DejaVuSans-63" transform="translate(193.457031 0)"/>
     <use xlink:href="#DejaVuSans-74" transform="translate(248.4375 0)"/>
     <use xlink:href="#DejaVuSans-3d" transform="translate(287.646484 0)"/>
     <use xlink:href="#DejaVuSans-30" transform="translate(371.435547 0)"/>
     <use xlink:href="#DejaVuSans-2e" transform="translate(435.058594 0)"/>
     <use xlink:href="#DejaVuSans-31" transform="translate(466.845703 0)"/>
     <use xlink:href="#DejaVuSans-30" transform="translate(530.46875 0)"/>
     <use xlink:href="#DejaVuSans-20" transform="translate(594.091797 0)"/>
     <use xlink:href="#DejaVuSans-53" transform="translate(625.878906 0)"/>
     <use xlink:href="#DejaVuSans-44" transform="translate(689.355469 0)"/>
     <use xlink:href="#DejaVuSans-20" transform="translate(766.357422 0)"/>
     <use xlink:href="#DejaVuSans-67" transform="translate(798.144531 0)"/>
     <use xlink:href="#DejaVuSans-61" transform="translate(861.621094 0)"/>
     <use xlink:href="#DejaVuSans-70" transform="translate(922.900391 0)"/>
     <use xlink:href="#DejaVuSans-3d" transform="translate(986.376953 0)"/>
     <use xlink:href="#DejaVuSans-2d" transform="translate(1070.166016 0)"/>
     <use xlink:href="#DejaVuSans-38" transform="translate(1106.25 0)"/>
     <use xlink:href="#DejaVuSans-2e" transform="translate(1169.873047 0)"/>
     <use xlink:href="#DejaVuSans-37" transform="translate(1201.660156 0)"/>
     <use xlink:href="#DejaVuSans-32" transform="translate(1265.283203 0)"/>
     <use xlink:href="#DejaVuSans-65" transform="translate(1328.90625 0)"/>
     <use xlink:href="#DejaVuSans-2b" transform="translate(1390.429688 0)"/>
     <use xlink:href="#DejaVuSans-30" transform="translate(1474.21875 0)"/>
     <use xlink:href="#DejaVuSans-33" transform="translate(1537.841797 0)"/>
    </g>
   </g>
   <g id="text_23">
    <g id="patch_24">
     <path d="M 2848.278906 631.4086 
L 3177.361094 631.4086 
Q 3179.881094 631.4086 3179.881094 628.8886 
L 3179.881094 576.278368 
Q 3179.881094 573.758368 3177.361094 573.758368 
L 2848.278906 573.758368 
Q 2845.758906 573.758368 2845.758906 576.278368 
L 2845.758906 628.8886 
Q 2845.758906 631.4086 2848.278906 631.4086 
z
" style="fill: #ffffff; stroke: #333333; stroke-width: 1.25; stroke-linejoin: miter"/>
    </g>
    <!-- 12-month change in transfer share -->
    <g transform="translate(2855.658906 597.335556) scale(0.18 -0.18)">
     <use xlink:href="#DejaVuSans-31"/>
     <use xlink:href="#DejaVuSans-32" transform="translate(63.623047 0)"/>
     <use xlink:href="#DejaVuSans-2d" transform="translate(127.246094 0)"/>
     <use xlink:href="#DejaVuSans-6d" transform="translate(163.330078 0)"/>
     <use xlink:href="#DejaVuSans-6f" transform="translate(260.742188 0)"/>
     <use xlink:href="#DejaVuSans-6e" transform="translate(321.923828 0)"/>
     <use xlink:href="#DejaVuSans-74" transform="translate(385.302734 0)"/>
     <use xlink:href="#DejaVuSans-68" transform="translate(424.511719 0)"/>
     <use xlink:href="#DejaVuSans-20" transform="translate(487.890625 0)"/>
     <use xlink:href="#DejaVuSans-63" transform="translate(519.677734 0)"/>
     <use xlink:href="#DejaVuSans-68" transform="translate(574.658203 0)"/>
     <use xlink:href="#DejaVuSans-61" transform="translate(638.037109 0)"/>
     <use xlink:href="#DejaVuSans-6e" transform="translate(699.316406 0)"/>
     <use xlink:href="#DejaVuSans-67" transform="translate(762.695312 0)"/>
     <use xlink:href="#DejaVuSans-65" transform="translate(826.171875 0)"/>
     <use xlink:href="#DejaVuSans-20" transform="translate(887.695312 0)"/>
     <use xlink:href="#DejaVuSans-69" transform="translate(919.482422 0)"/>
     <use xlink:href="#DejaVuSans-6e" transform="translate(947.265625 0)"/>
     <use xlink:href="#DejaVuSans-20" transform="translate(1010.644531 0)"/>
     <use xlink:href="#DejaVuSans-74" transform="translate(1042.431641 0)"/>
     <use xlink:href="#DejaVuSans-72" transform="translate(1081.640625 0)"/>
     <use xlink:href="#DejaVuSans-61" transform="translate(1122.753906 0)"/>
     <use xlink:href="#DejaVuSans-6e" transform="translate(1184.033203 0)"/>
     <use xlink:href="#DejaVuSans-73" transform="translate(1247.412109 0)"/>
     <use xlink:href="#DejaVuSans-66" transform="translate(1299.511719 0)"/>
     <use xlink:href="#DejaVuSans-65" transform="translate(1334.716797 0)"/>
     <use xlink:href="#DejaVuSans-72" transform="translate(1396.240234 0)"/>
     <use xlink:href="#DejaVuSans-20" transform="translate(1437.353516 0)"/>
     <use xlink:href="#DejaVuSans-73" transform="translate(1469.140625 0)"/>
     <use xlink:href="#DejaVuSans-68" transform="translate(1521.240234 0)"/>
     <use xlink:href="#DejaVuSans-61" transform="translate(1584.619141 0)"/>
     <use xlink:href="#DejaVuSans-72" transform="translate(1645.898438 0)"/>
     <use xlink:href="#DejaVuSans-65" transform="translate(1684.761719 0)"/>
    </g>
    <!-- &lt;= -0.1333 -->
    <g transform="translate(2960.137656 617.765162) scale(0.18 -0.18)">
     <use xlink:href="#DejaVuSans-3c"/>
     <use xlink:href="#DejaVuSans-3d" transform="translate(83.789062 0)"/>
     <use xlink:href="#DejaVuSans-20" transform="translate(167.578125 0)"/>
     <use xlink:href="#DejaVuSans-2d" transform="translate(199.365234 0)"/>
     <use xlink:href="#DejaVuSans-30" transform="translate(235.449219 0)"/>
     <use xlink:href="#DejaVuSans-2e" transform="translate(299.072266 0)"/>
     <use xlink:href="#DejaVuSans-31" transform="translate(330.859375 0)"/>
     <use xlink:href="#DejaVuSans-33" transform="translate(394.482422 0)"/>
     <use xlink:href="#DejaVuSans-33" transform="translate(458.105469 0)"/>
     <use xlink:href="#DejaVuSans-33" transform="translate(521.728516 0)"/>
    </g>
   </g>
   <g id="text_24">
    <g id="patch_25">
     <path d="M 2412.193125 440.668174 
L 2716.246875 440.668174 
Q 2718.766875 440.668174 2718.766875 438.148174 
L 2718.766875 385.537943 
Q 2718.766875 383.017943 2716.246875 383.017943 
L 2412.193125 383.017943 
Q 2409.673125 383.017943 2409.673125 385.537943 
L 2409.673125 438.148174 
Q 2409.673125 440.668174 2412.193125 440.668174 
z
" style="fill: #ffffff; stroke: #333333; stroke-width: 1.25; stroke-linejoin: miter"/>
    </g>
    <!-- 20-month lag transfer share &lt;= -->
    <g transform="translate(2419.573125 406.59513) scale(0.18 -0.18)">
     <use xlink:href="#DejaVuSans-32"/>
     <use xlink:href="#DejaVuSans-30" transform="translate(63.623047 0)"/>
     <use xlink:href="#DejaVuSans-2d" transform="translate(127.246094 0)"/>
     <use xlink:href="#DejaVuSans-6d" transform="translate(163.330078 0)"/>
     <use xlink:href="#DejaVuSans-6f" transform="translate(260.742188 0)"/>
     <use xlink:href="#DejaVuSans-6e" transform="translate(321.923828 0)"/>
     <use xlink:href="#DejaVuSans-74" transform="translate(385.302734 0)"/>
     <use xlink:href="#DejaVuSans-68" transform="translate(424.511719 0)"/>
     <use xlink:href="#DejaVuSans-20" transform="translate(487.890625 0)"/>
     <use xlink:href="#DejaVuSans-6c" transform="translate(519.677734 0)"/>
     <use xlink:href="#DejaVuSans-61" transform="translate(547.460938 0)"/>
     <use xlink:href="#DejaVuSans-67" transform="translate(608.740234 0)"/>
     <use xlink:href="#DejaVuSans-20" transform="translate(672.216797 0)"/>
     <use xlink:href="#DejaVuSans-74" transform="translate(704.003906 0)"/>
     <use xlink:href="#DejaVuSans-72" transform="translate(743.212891 0)"/>
     <use xlink:href="#DejaVuSans-61" transform="translate(784.326172 0)"/>
     <use xlink:href="#DejaVuSans-6e" transform="translate(845.605469 0)"/>
     <use xlink:href="#DejaVuSans-73" transform="translate(908.984375 0)"/>
     <use xlink:href="#DejaVuSans-66" transform="translate(961.083984 0)"/>
     <use xlink:href="#DejaVuSans-65" transform="translate(996.289062 0)"/>
     <use xlink:href="#DejaVuSans-72" transform="translate(1057.8125 0)"/>
     <use xlink:href="#DejaVuSans-20" transform="translate(1098.925781 0)"/>
     <use xlink:href="#DejaVuSans-73" transform="translate(1130.712891 0)"/>
     <use xlink:href="#DejaVuSans-68" transform="translate(1182.8125 0)"/>
     <use xlink:href="#DejaVuSans-61" transform="translate(1246.191406 0)"/>
     <use xlink:href="#DejaVuSans-72" transform="translate(1307.470703 0)"/>
     <use xlink:href="#DejaVuSans-65" transform="translate(1346.333984 0)"/>
     <use xlink:href="#DejaVuSans-20" transform="translate(1407.857422 0)"/>
     <use xlink:href="#DejaVuSans-3c" transform="translate(1439.644531 0)"/>
     <use xlink:href="#DejaVuSans-3d" transform="translate(1523.433594 0)"/>
    </g>
    <!-- 0.00158 -->
    <g transform="translate(2527.002188 427.024737) scale(0.18 -0.18)">
     <use xlink:href="#DejaVuSans-30"/>
     <use xlink:href="#DejaVuSans-2e" transform="translate(63.623047 0)"/>
     <use xlink:href="#DejaVuSans-30" transform="translate(95.410156 0)"/>
     <use xlink:href="#DejaVuSans-30" transform="translate(159.033203 0)"/>
     <use xlink:href="#DejaVuSans-31" transform="translate(222.65625 0)"/>
     <use xlink:href="#DejaVuSans-35" transform="translate(286.279297 0)"/>
     <use xlink:href="#DejaVuSans-38" transform="translate(349.902344 0)"/>
    </g>
   </g>
   <g id="text_25">
    <g id="patch_26">
     <path d="M 1565.000156 249.927749 
L 1881.189844 249.927749 
Q 1883.709844 249.927749 1883.709844 247.407749 
L 1883.709844 194.797517 
Q 1883.709844 192.277517 1881.189844 192.277517 
L 1565.000156 192.277517 
Q 1562.480156 192.277517 1562.480156 194.797517 
L 1562.480156 247.407749 
Q 1562.480156 249.927749 1565.000156 249.927749 
z
" style="fill: #ffffff; stroke: #333333; stroke-width: 1.25; stroke-linejoin: miter"/>
    </g>
    <!-- 6-month mean transfer share &lt;= -->
    <g transform="translate(1572.380156 215.854705) scale(0.18 -0.18)">
     <use xlink:href="#DejaVuSans-36"/>
     <use xlink:href="#DejaVuSans-2d" transform="translate(63.623047 0)"/>
     <use xlink:href="#DejaVuSans-6d" transform="translate(99.707031 0)"/>
     <use xlink:href="#DejaVuSans-6f" transform="translate(197.119141 0)"/>
     <use xlink:href="#DejaVuSans-6e" transform="translate(258.300781 0)"/>
     <use xlink:href="#DejaVuSans-74" transform="translate(321.679688 0)"/>
     <use xlink:href="#DejaVuSans-68" transform="translate(360.888672 0)"/>
     <use xlink:href="#DejaVuSans-20" transform="translate(424.267578 0)"/>
     <use xlink:href="#DejaVuSans-6d" transform="translate(456.054688 0)"/>
     <use xlink:href="#DejaVuSans-65" transform="translate(553.466797 0)"/>
     <use xlink:href="#DejaVuSans-61" transform="translate(614.990234 0)"/>
     <use xlink:href="#DejaVuSans-6e" transform="translate(676.269531 0)"/>
     <use xlink:href="#DejaVuSans-20" transform="translate(739.648438 0)"/>
     <use xlink:href="#DejaVuSans-74" transform="translate(771.435547 0)"/>
     <use xlink:href="#DejaVuSans-72" transform="translate(810.644531 0)"/>
     <use xlink:href="#DejaVuSans-61" transform="translate(851.757812 0)"/>
     <use xlink:href="#DejaVuSans-6e" transform="translate(913.037109 0)"/>
     <use xlink:href="#DejaVuSans-73" transform="translate(976.416016 0)"/>
     <use xlink:href="#DejaVuSans-66" transform="translate(1028.515625 0)"/>
     <use xlink:href="#DejaVuSans-65" transform="translate(1063.720703 0)"/>
     <use xlink:href="#DejaVuSans-72" transform="translate(1125.244141 0)"/>
     <use xlink:href="#DejaVuSans-20" transform="translate(1166.357422 0)"/>
     <use xlink:href="#DejaVuSans-73" transform="translate(1198.144531 0)"/>
     <use xlink:href="#DejaVuSans-68" transform="translate(1250.244141 0)"/>
     <use xlink:href="#DejaVuSans-61" transform="translate(1313.623047 0)"/>
     <use xlink:href="#DejaVuSans-72" transform="translate(1374.902344 0)"/>
     <use xlink:href="#DejaVuSans-65" transform="translate(1413.765625 0)"/>
     <use xlink:href="#DejaVuSans-20" transform="translate(1475.289062 0)"/>
     <use xlink:href="#DejaVuSans-3c" transform="translate(1507.076172 0)"/>
     <use xlink:href="#DejaVuSans-3d" transform="translate(1590.865234 0)"/>
    </g>
    <!-- 0.002177 -->
    <g transform="translate(1680.150938 236.284311) scale(0.18 -0.18)">
     <use xlink:href="#DejaVuSans-30"/>
     <use xlink:href="#DejaVuSans-2e" transform="translate(63.623047 0)"/>
     <use xlink:href="#DejaVuSans-30" transform="translate(95.410156 0)"/>
     <use xlink:href="#DejaVuSans-30" transform="translate(159.033203 0)"/>
     <use xlink:href="#DejaVuSans-32" transform="translate(222.65625 0)"/>
     <use xlink:href="#DejaVuSans-31" transform="translate(286.279297 0)"/>
     <use xlink:href="#DejaVuSans-37" transform="translate(349.902344 0)"/>
     <use xlink:href="#DejaVuSans-37" transform="translate(413.525391 0)"/>
    </g>
   </g>
   <g id="text_26">
    <!-- DOLPHIN surrogate tree 2 (forest index 1) -->
    <g transform="translate(1550.75125 25.43625) scale(0.24 -0.24)">
     <defs>
      <path id="DejaVuSans-50" d="M 1259 4147 
L 1259 2394 
L 2053 2394 
Q 2494 2394 2734 2622 
Q 2975 2850 2975 3272 
Q 2975 3691 2734 3919 
Q 2494 4147 2053 4147 
L 1259 4147 
z
M 628 4666 
L 2053 4666 
Q 2838 4666 3239 4311 
Q 3641 3956 3641 3272 
Q 3641 2581 3239 2228 
Q 2838 1875 2053 1875 
L 1259 1875 
L 1259 0 
L 628 0 
L 628 4666 
z
" transform="scale(0.015625)"/>
      <path id="DejaVuSans-48" d="M 628 4666 
L 1259 4666 
L 1259 2753 
L 3553 2753 
L 3553 4666 
L 4184 4666 
L 4184 0 
L 3553 0 
L 3553 2222 
L 1259 2222 
L 1259 0 
L 628 0 
L 628 4666 
z
" transform="scale(0.015625)"/>
      <path id="DejaVuSans-64" d="M 2906 2969 
L 2906 4863 
L 3481 4863 
L 3481 0 
L 2906 0 
L 2906 525 
Q 2725 213 2448 61 
Q 2172 -91 1784 -91 
Q 1150 -91 751 415 
Q 353 922 353 1747 
Q 353 2572 751 3078 
Q 1150 3584 1784 3584 
Q 2172 3584 2448 3432 
Q 2725 3281 2906 2969 
z
M 947 1747 
Q 947 1113 1208 752 
Q 1469 391 1925 391 
Q 2381 391 2643 752 
Q 2906 1113 2906 1747 
Q 2906 2381 2643 2742 
Q 2381 3103 1925 3103 
Q 1469 3103 1208 2742 
Q 947 2381 947 1747 
z
" transform="scale(0.015625)"/>
      <path id="DejaVuSans-78" d="M 3513 3500 
L 2247 1797 
L 3578 0 
L 2900 0 
L 1881 1375 
L 863 0 
L 184 0 
L 1544 1831 
L 300 3500 
L 978 3500 
L 1906 2253 
L 2834 3500 
L 3513 3500 
z
" transform="scale(0.015625)"/>
     </defs>
     <use xlink:href="#DejaVuSans-44"/>
     <use xlink:href="#DejaVuSans-4f" transform="translate(77.001953 0)"/>
     <use xlink:href="#DejaVuSans-4c" transform="translate(155.712891 0)"/>
     <use xlink:href="#DejaVuSans-50" transform="translate(211.425781 0)"/>
     <use xlink:href="#DejaVuSans-48" transform="translate(271.728516 0)"/>
     <use xlink:href="#DejaVuSans-49" transform="translate(346.923828 0)"/>
     <use xlink:href="#DejaVuSans-4e" transform="translate(376.416016 0)"/>
     <use xlink:href="#DejaVuSans-20" transform="translate(451.220703 0)"/>
     <use xlink:href="#DejaVuSans-73" transform="translate(483.007812 0)"/>
     <use xlink:href="#DejaVuSans-75" transform="translate(535.107422 0)"/>
     <use xlink:href="#DejaVuSans-72" transform="translate(598.486328 0)"/>
     <use xlink:href="#DejaVuSans-72" transform="translate(637.849609 0)"/>
     <use xlink:href="#DejaVuSans-6f" transform="translate(676.712891 0)"/>
     <use xlink:href="#DejaVuSans-67" transform="translate(737.894531 0)"/>
     <use xlink:href="#DejaVuSans-61" transform="translate(801.371094 0)"/>
     <use xlink:href="#DejaVuSans-74" transform="translate(862.650391 0)"/>
     <use xlink:href="#DejaVuSans-65" transform="translate(901.859375 0)"/>
     <use xlink:href="#DejaVuSans-20" transform="translate(963.382812 0)"/>
     <use xlink:href="#DejaVuSans-74" transform="translate(995.169922 0)"/>
     <use xlink:href="#DejaVuSans-72" transform="translate(1034.378906 0)"/>
     <use xlink:href="#DejaVuSans-65" transform="translate(1073.242188 0)"/>
     <use xlink:href="#DejaVuSans-65" transform="translate(1134.765625 0)"/>
     <use xlink:href="#DejaVuSans-20" transform="translate(1196.289062 0)"/>
     <use xlink:href="#DejaVuSans-32" transform="translate(1228.076172 0)"/>
     <use xlink:href="#DejaVuSans-20" transform="translate(1291.699219 0)"/>
     <use xlink:href="#DejaVuSans-28" transform="translate(1323.486328 0)"/>
     <use xlink:href="#DejaVuSans-66" transform="translate(1362.5 0)"/>
     <use xlink:href="#DejaVuSans-6f" transform="translate(1397.705078 0)"/>
     <use xlink:href="#DejaVuSans-72" transform="translate(1458.886719 0)"/>
     <use xlink:href="#DejaVuSans-65" transform="translate(1497.75 0)"/>
     <use xlink:href="#DejaVuSans-73" transform="translate(1559.273438 0)"/>
     <use xlink:href="#DejaVuSans-74" transform="translate(1611.373047 0)"/>
     <use xlink:href="#DejaVuSans-20" transform="translate(1650.582031 0)"/>
     <use xlink:href="#DejaVuSans-69" transform="translate(1682.369141 0)"/>
     <use xlink:href="#DejaVuSans-6e" transform="translate(1710.152344 0)"/>
     <use xlink:href="#DejaVuSans-64" transform="translate(1773.53125 0)"/>
     <use xlink:href="#DejaVuSans-65" transform="translate(1837.007812 0)"/>
     <use xlink:href="#DejaVuSans-78" transform="translate(1896.78125 0)"/>
     <use xlink:href="#DejaVuSans-20" transform="translate(1955.960938 0)"/>
     <use xlink:href="#DejaVuSans-31" transform="translate(1987.748047 0)"/>
     <use xlink:href="#DejaVuSans-29" transform="translate(2051.371094 0)"/>
    </g>
   </g>
  </g>
 </g>
 <defs>
  <clipPath id="pdacaf75200">
   <rect x="7.2" y="49.43625" width="3588.8" height="896.48"/>
  </clipPath>
 </defs>
</svg>
